<?xml version="1.0" encoding="utf-8"?>
<!-- Generator: Adobe Illustrator 19.1.0, SVG Export Plug-In . SVG Version: 6.00 Build 0)  -->
<!DOCTYPE svg PUBLIC "-//W3C//DTD SVG 1.1//EN" "http://www.w3.org/Graphics/SVG/1.1/DTD/svg11.dtd">
<svg version="1.1" id="Layer_1" xmlns="http://www.w3.org/2000/svg" xmlns:xlink="http://www.w3.org/1999/xlink" x="0px" y="0px"
	 viewBox="0 0 300 300" style="enable-background:new 0 0 300 300;" xml:space="preserve">
<style type="text/css">
	.st0{fill:#4EC2C2;}
</style>
<path class="st0" d="M176.8,287.7c-0.2-1.9-2.4-2.8-4.2-3.4c-12.2-4.3-20.6-15.8-26.1-27.5c-0.2-0.4-0.4-0.8-0.6-1.2
	c-6.5-14.3-10-29.8-12.6-45.3c-2.7-16.1-4.4-32.3-5.1-48.6c5.5-2.9,10.9-5.8,16.3-8.6c9.9-5.2,20.1-10,30.3-14.5
	c0,5,0.4,10,0.4,11.6c0,15.4-0.1,31.2,1.8,46.6c1.7,14.7,4.8,32.4,13.7,44.6c8.1,11,21.3,14.9,34.5,13c5.9-0.9,9.7-4,10.4-8.1
	c0.4-2.4-1.8-3.2-3.6-4.2c-5.7-3.2-10.3-7-14-11.4c-11.3-13.2-14.4-31.2-14-49.7c0.3-12.9-0.5-25.7-1-38.6c0-1.3-0.7-8.6-1.1-15
	c5.2-2.1,10.5-4.1,15.7-6.1c26.2-9.9,74.7-8.7,79.7-6.8c0-0.3-0.3-2.6-0.4-2.9c-0.2-1-0.5-2.1-0.9-3.1c-0.7-2-1.7-4.1-3-5.9
	c-2.7-3.8-7-5.4-11.3-6.6c-11.2-3.2-22.8-2.5-34.2-1.2c-11.8,1.4-23.5,3.9-34.9,7c-5.6,1.5-11.2,3.2-16.7,5
	c-3.4-29.9-9.4-60-24.5-85.9c-2.6-4.5-5.7-9-10.2-11.5c-2.9-1.6-7.9-3.6-11.1-2.4c-0.5,0.2-1.1,0.5-1.3,1.1c-0.2,0.6,0,1.3,0.3,1.9
	c8.5,16.4,13.5,34.3,17.7,52.2c0.7,3.1,1.5,6.2,2.1,9.3c0.8,3.7,1.5,7.5,2.2,11.3c0.7,3.8,1.3,7.6,1.8,11.3c0.6,3.8,1,7.6,1.5,11.4
	c0.3,2.7,0.6,5.4,0.8,8.2c-17.4,6.1-34.9,12.9-52.3,19.6c-1.1-12-2.7-23.9-5-35.6c-3.8-19.6-8.4-38.3-18.4-55.7
	c-2.4-4.2-5.2-8.7-9.3-11.5c-2.4-1.6-8.5-5-11.3-2.7c-1.2,1,2.2,6.9,2.9,8.6c11.8,26.6,15.9,55.4,18.7,85c0.5,5.2,0.9,10.4,1.2,15.6
	c0,0.5,0.2,2.2,0.4,4.3c-5.9,2.2-11.7,4.4-17.6,6.5c-19.2,6.8-53.1,10.2-68.6-6.3c-1.9-2-11.2-10.5-12-11
	c-3.7,15.4,5.3,34.6,10.9,41.1c15.6,18.5,44.6,16.5,65.6,10.7c7.7-2.2,15.2-5,22.5-8.1c0.1,2.1,0.2,4.2,0.2,6.4
	c1.2,30,2.7,61.3,17,87.7c5.3,9.8,12.6,18.9,22.5,24.1s22.6,5.7,31.8-0.7C175.7,290.4,177,289.2,176.8,287.7z"/>
</svg>
