<?xml version="1.0" encoding="utf-8"?>
<!-- Generator: Adobe Illustrator 19.1.0, SVG Export Plug-In . SVG Version: 6.00 Build 0)  -->
<!DOCTYPE svg PUBLIC "-//W3C//DTD SVG 1.1//EN" "http://www.w3.org/Graphics/SVG/1.1/DTD/svg11.dtd">
<svg version="1.1" id="Layer_1" xmlns="http://www.w3.org/2000/svg" xmlns:xlink="http://www.w3.org/1999/xlink" x="0px" y="0px"
	 viewBox="0 0 50 50" style="enable-background:new 0 0 50 50;" xml:space="preserve">
<style type="text/css">
	.st0{fill:#E55E5D;stroke:#E55E5D;stroke-width:3;stroke-miterlimit:10;}
	.st1{fill:#E55E5D;}
	.st2{fill:none;}
	.st3{enable-background:new    ;}
	.st4{fill:#FFFFFF;}
	.st5{fill:none;stroke:#FFFFFF;stroke-width:0.4144;stroke-miterlimit:10;}
	.st6{fill:none;stroke:#FFFFFF;stroke-width:1.1534;stroke-miterlimit:10;}
	.st7{fill:#5D5D5D;}
	.st8{fill:none;stroke:#E55E5D;stroke-width:3;stroke-miterlimit:10;}
	.st9{fill:#E55E5D;stroke:#FFFFFF;stroke-linecap:round;stroke-linejoin:round;stroke-miterlimit:10;}
	.st10{fill:#E55E5D;stroke:#E55E5D;stroke-width:2.7791;stroke-miterlimit:10;}
</style>
<rect y="0.3" class="st0" width="50" height="51"/>
<rect x="90.8" y="-31.3" class="st1" width="49.8" height="49.8"/>
<rect x="95.6" y="-21.8" class="st2" width="41.1" height="44.1"/>
<text transform="matrix(1 0 0 1 95.5708 4.1052)" class="st4" style="font-family:'Luna'; font-size:17.406px;">abc</text>
<text transform="matrix(1 0 0 1 95.5708 4.1052)" class="st5" style="font-family:'Luna'; font-size:17.406px;">abc</text>
<line class="st5" x1="90.8" y1="-14.1" x2="140.6" y2="-14.1"/>
<line class="st5" x1="90.8" y1="-20.8" x2="140.6" y2="-20.8"/>
<line class="st5" x1="90.8" y1="4" x2="140.6" y2="4"/>
<path class="st4" d="M100.9,65.2H66.6c-1.7,0-3-1.3-3-3V44c0-1.6,1.3-3,3-3h34.3c1.6,0,3,1.4,3,3v18.3
	C103.9,63.9,102.6,65.2,100.9,65.2z"/>
<path class="st4" d="M89.8,43.6H77.9c-1.1,0-2-0.9-2-2v-3.7c0-1.1,0.9-2,2-2h11.9c1.1,0,2,0.9,2,2v3.7
	C91.8,42.7,90.9,43.6,89.8,43.6z"/>
<path class="st1" d="M40.5,24.6L40.5,24.6c-1,0-1.8-0.8-1.8-1.8l0,0c0-1,0.8-1.8,1.8-1.8l0,0c1,0,1.8,0.8,1.8,1.8l0,0
	C42.4,23.8,41.6,24.6,40.5,24.6z"/>
<path class="st6" d="M41.4,55.2H8.2c-0.3,0-0.5-0.2-0.5-0.5V7.5C7.7,7.2,8,7,8.2,7h33.1c0.3,0,0.5,0.2,0.5,0.5v47.3
	C41.9,55,41.6,55.2,41.4,55.2z"/>
<path class="st4" d="M31.1,17.7H10.9c-0.3,0-0.5-0.2-0.5-0.5v-6.7c0-0.3,0.2-0.5,0.5-0.5h20.2c0.3,0,0.5,0.2,0.5,0.5v6.7
	C31.6,17.5,31.4,17.7,31.1,17.7z"/>
<path class="st4" d="M23.9,37h-13c-0.3,0-0.5-0.2-0.5-0.5V21.3c0-0.3,0.2-0.5,0.5-0.5h13c0.3,0,0.5,0.2,0.5,0.5v15.2
	C24.4,36.7,24.2,37,23.9,37z"/>
<path class="st4" d="M38.9,22.6H26.7c-0.3,0-0.5-0.2-0.5-0.5v-0.8c0-0.3,0.2-0.5,0.5-0.5h12.1c0.3,0,0.5,0.2,0.5,0.5v0.8
	C39.4,22.4,39.1,22.6,38.9,22.6z"/>
<path class="st4" d="M38.9,25.5H26.7c-0.3,0-0.5-0.2-0.5-0.5v-0.8c0-0.3,0.2-0.5,0.5-0.5h12.1c0.3,0,0.5,0.2,0.5,0.5V25
	C39.4,25.3,39.1,25.5,38.9,25.5z"/>
<path class="st4" d="M38.9,28.5H26.7c-0.3,0-0.5-0.2-0.5-0.5v-0.8c0-0.3,0.2-0.5,0.5-0.5h12.1c0.3,0,0.5,0.2,0.5,0.5V28
	C39.4,28.2,39.1,28.5,38.9,28.5z"/>
<path class="st4" d="M38.9,31.1H26.7c-0.3,0-0.5-0.2-0.5-0.5v-0.8c0-0.3,0.2-0.5,0.5-0.5h12.1c0.3,0,0.5,0.2,0.5,0.5v0.8
	C39.4,30.9,39.1,31.1,38.9,31.1z"/>
<path class="st4" d="M38.9,34H26.7c-0.3,0-0.5-0.2-0.5-0.5v-0.8c0-0.3,0.2-0.5,0.5-0.5h12.1c0.3,0,0.5,0.2,0.5,0.5v0.8
	C39.4,33.8,39.1,34,38.9,34z"/>
<path class="st4" d="M23.4,43.4H11.3c-0.3,0-0.5-0.2-0.5-0.5v-0.8c0-0.3,0.2-0.5,0.5-0.5h12.1c0.3,0,0.5,0.2,0.5,0.5v0.8
	C23.9,43.2,23.7,43.4,23.4,43.4z"/>
<path class="st4" d="M23.4,46.3H11.3c-0.3,0-0.5-0.2-0.5-0.5V45c0-0.3,0.2-0.5,0.5-0.5h12.1c0.3,0,0.5,0.2,0.5,0.5v0.8
	C23.9,46.1,23.7,46.3,23.4,46.3z"/>
<path class="st4" d="M39.3,52.1h-28c-0.3,0-0.5-0.2-0.5-0.5v-0.8c0-0.3,0.2-0.5,0.5-0.5h28c0.3,0,0.5,0.2,0.5,0.5v0.8
	C39.8,51.9,39.6,52.1,39.3,52.1z"/>
<path class="st4" d="M39.3,54.5h-28c-0.3,0-0.5-0.2-0.5-0.5v-0.8c0-0.3,0.2-0.5,0.5-0.5h28c0.3,0,0.5,0.2,0.5,0.5V54
	C39.8,54.3,39.6,54.5,39.3,54.5z"/>
<rect x="-7.8" y="50" class="st7" width="60.8" height="10.3"/>
<rect x="-0.3" y="-1.1" class="st8" width="51.4" height="51.1"/>
<polygon class="st9" points="33.9,14.8 33.9,7 41.7,14.8 "/>
<polygon class="st10" points="33,3.7 43.6,13.9 43.5,2.8 "/>
<path class="st4" d="M39.3,46.3h-13c-0.3,0-0.5-0.2-0.5-0.5v-6.9c0-0.3,0.2-0.5,0.5-0.5h13c0.3,0,0.5,0.2,0.5,0.5v6.9
	C39.8,46.1,39.6,46.3,39.3,46.3z"/>
<path class="st4" d="M38.9,37H26.7c-0.3,0-0.5-0.2-0.5-0.5v-0.8c0-0.3,0.2-0.5,0.5-0.5h12.1c0.3,0,0.5,0.2,0.5,0.5v0.8
	C39.4,36.7,39.1,37,38.9,37z"/>
<path class="st4" d="M23.4,40.5H11.3c-0.3,0-0.5-0.2-0.5-0.5v-0.8c0-0.3,0.2-0.5,0.5-0.5h12.1c0.3,0,0.5,0.2,0.5,0.5V40
	C23.9,40.2,23.7,40.5,23.4,40.5z"/>
</svg>
