<?xml version="1.0" encoding="utf-8"?>
<!-- Generator: Adobe Illustrator 19.1.0, SVG Export Plug-In . SVG Version: 6.00 Build 0)  -->
<!DOCTYPE svg PUBLIC "-//W3C//DTD SVG 1.1//EN" "http://www.w3.org/Graphics/SVG/1.1/DTD/svg11.dtd">
<svg version="1.1" id="Layer_1" xmlns="http://www.w3.org/2000/svg" xmlns:xlink="http://www.w3.org/1999/xlink" x="0px" y="0px"
	 viewBox="0 0 50 50" style="enable-background:new 0 0 50 50;" xml:space="preserve">
<style type="text/css">
	.st0{fill:#E55E5D;}
	.st1{fill:#FFFFFF;stroke:#FFFFFF;stroke-width:0.4144;stroke-miterlimit:10;}
	.st2{fill:none;stroke:#FFFFFF;stroke-width:0.4144;stroke-miterlimit:10;}
	.st3{fill:#FFFFFF;}
	.st4{fill:none;stroke:#E55E5D;stroke-width:3;stroke-miterlimit:10;}
	.st5{fill:none;stroke:#E55E5D;stroke-width:0.6226;stroke-miterlimit:10;}
	.st6{fill:#5D5E5E;}
	.st7{fill:none;stroke:#E55E5D;stroke-width:2;stroke-miterlimit:10;}
</style>
<rect x="214.2" y="-133.7" class="st0" width="50" height="50"/>
<rect x="290.1" y="-31.3" class="st0" width="49.8" height="49.8"/>
<rect x="199.4" y="0.1" class="st0" width="49.8" height="49.8"/>
<rect x="294.9" y="-21.8" style="fill:none;" width="41.1" height="44.1"/>
<text transform="matrix(1 0 0 1 294.8929 4.1052)" class="st1" style="font-family:'Luna'; font-size:17.406px;">abc</text>
<line class="st2" x1="290.1" y1="-14.1" x2="339.9" y2="-14.1"/>
<line class="st2" x1="290.1" y1="-20.8" x2="339.9" y2="-20.8"/>
<line class="st2" x1="290.1" y1="4" x2="339.9" y2="4"/>
<path class="st3" d="M256.2-94.1h-34.3c-1.7,0-3-1.3-3-3v-18.3c0-1.7,1.3-3,3-3h34.3c1.6,0,3,1.3,3,3v18.3
	C259.2-95.5,257.8-94.1,256.2-94.1z"/>
<circle class="st4" cx="239" cy="-106.2" r="6.1"/>
<path class="st3" d="M245-115.8h-11.9c-1.1,0-2-0.9-2-2v-3.7c0-1.1,0.9-2,2-2H245c1.1,0,2,0.9,2,2v3.7
	C247-116.7,246.1-115.8,245-115.8z"/>
<path class="st0" d="M252.5-113.8L252.5-113.8c-0.9,0-1.6-0.7-1.6-1.6v0c0-0.9,0.7-1.6,1.6-1.6h0c0.9,0,1.6,0.7,1.6,1.6v0
	C254.1-114.5,253.4-113.8,252.5-113.8z"/>
<line class="st5" x1="217.4" y1="-110.3" x2="234.5" y2="-110.3"/>
<line class="st5" x1="242.9" y1="-110.3" x2="259.9" y2="-110.3"/>
<g>
	<path class="st3" d="M255.8,7.5c-2.2,1.8-9,12.3-8.9,15.1c-3.6-0.2-7,0.5-10.1,2.4c0-0.1,0.1-0.1,0.1-0.2c1.9-2.1,3.7-4.2,5.6-6.4
		c0.1-0.1,0.2-0.1,0.4-0.1c0.4,0.1,0.7-0.1,0.9-0.5c0.1-0.3,0.1-0.7-0.2-1c-0.3-0.2-0.7-0.3-1,0c-0.3,0.2-0.4,0.6-0.3,1
		c0,0.1,0,0.2,0,0.3c-1.9,2.2-3.8,4.3-5.7,6.5c0,0-0.1,0.1-0.1,0.1c1.6-3.3,1.9-6.8,1.2-10.4c2.7-0.3,11.1-9.4,12.6-11.8
		C252,4.2,253.9,5.9,255.8,7.5z"/>
</g>
<rect x="208.4" y="2" style="fill:none;" width="40.9" height="47"/>
<text transform="matrix(1 0 0 1 208.421 40.4257)" class="st1" style="font-family:'Nickainley'; font-size:60px; letter-spacing:-2;">a</text>
<path class="st6" d="M282,84.1h-94.6c-1.6,0-3-1.4-3-3V52.9c0-1.6,1.4-3,3-3H282c1.6,0,3,1.4,3,3v28.2C285,82.8,283.7,84.1,282,84.1
	z"/>
<path class="st6" d="M263.5,45.7h-11.3c-1.6,0-3-1.3-3-3V-4.9c0-1.7,1.4-3,3-3h11.3c1.6,0,3,1.3,3,3v47.6
	C266.5,44.4,265.1,45.7,263.5,45.7z"/>
<rect x="101.9" y="0.1" class="st0" width="49.8" height="49.8"/>
<rect x="110.9" y="2" style="fill:none;" width="40.9" height="47"/>
<text transform="matrix(1 0 0 1 110.9267 40.4257)" class="st1" style="font-family:'Nickainley'; font-size:60px; letter-spacing:-2;">a</text>
<path class="st6" d="M184.5,84.1H89.9c-1.7,0-3-1.4-3-3V52.9c0-1.6,1.3-3,3-3h94.6c1.6,0,3,1.4,3,3v28.2
	C187.5,82.8,186.2,84.1,184.5,84.1z"/>
<g>
	<g>
		<path class="st3" d="M158.7,5.4c-2.1,1.9-8.8,12.5-8.7,15.2c-3.6-0.2-7,0.6-10,2.6c0-0.1,0.1-0.1,0.1-0.2c1.8-2.2,3.7-4.3,5.5-6.5
			c0.1-0.1,0.2-0.2,0.3-0.1c0.4,0.1,0.7-0.1,0.9-0.5c0.1-0.3,0-0.7-0.2-0.9c-0.3-0.2-0.7-0.2-1,0c-0.3,0.2-0.4,0.6-0.3,1
			c0,0.1,0,0.2,0,0.3c-1.9,2.2-3.7,4.4-5.6,6.6c0,0-0.1,0.1-0.1,0.1c1.6-3.4,1.8-6.8,1-10.4c2.7-0.3,10.9-9.6,12.4-12
			C154.9,2.2,156.8,3.8,158.7,5.4z"/>
	</g>
	<circle class="st0" cx="146" cy="15.8" r="1.3"/>
	
		<rect x="142.6" y="14.1" transform="matrix(0.7581 0.6522 -0.6522 0.7581 47.2947 -88.4778)" class="st0" width="0.7" height="10.7"/>
</g>
<path class="st6" d="M166,45.7h-11.3c-1.6,0-3-1.3-3-3V-4.9c0-1.7,1.4-3,3-3H166c1.7,0,3,1.3,3,3v47.6C169,44.4,167.6,45.7,166,45.7
	z"/>
<rect x="0" y="0.1" class="st0" width="50.7" height="49.8"/>
<path class="st1" d="M36.1,28.4c-0.2,0-0.3,0-0.4,0.1c-0.3,0.2-0.4,0.6-0.5,0.9c-0.6,2.1-1.5,4-2.7,5.8c-0.8,1.2-1.7,2.3-2.9,2.9
	c-0.3,0.2-0.6,0.3-1,0.2c-0.7-0.1-1-0.9-1.1-1.6c-0.3-2.6,0.4-5.3,1.5-7.7c1.1-2.4,2.5-4.7,3.7-7.1c0.4-0.7,0.7-1.5,0.6-2.3
	c-0.1-0.8-0.6-1.5-1.2-2c-0.9-0.9-2-1.7-3.2-2.2c-0.4,0.7-0.8,1.7-1,2.5c-1.3-1.9-3.8-3.1-6.1-2.9s-4.5,1.4-6.2,3
	c-3.7,3.4-5.7,8.5-5.3,13.4c0.2,2.3,1,4.7,2.7,6.1c1.5,1.2,3.6,1.7,5.5,1.3s3.6-1.6,4.8-3.2c0.3,1.2,0.7,2.4,1.5,3.4
	c0.8,1,2,1.6,3.2,1.7c2,0,3.6-1.6,4.7-3.2c1.6-2.3,2.8-4.8,3.4-7.5c0.1-0.2,0.1-0.5,0.2-0.7c0-0.2,0.2-0.4,0.1-0.6
	C36.5,28.5,36.3,28.4,36.1,28.4z M23.1,33.9c-1.4,1.8-3.2,3-5.3,3c-4,0-4.5-3.3-4.5-5.8c0-5.3,5.1-11.1,9.1-11.1
	c1.4,0,2.6,0.9,3.7,2.1C24.7,25.2,23.1,29.9,23.1,33.9z"/>
<path class="st6" d="M82.7,84.1h-94.6c-1.7,0-3-1.4-3-3V52.9c0-1.6,1.3-3,3-3h94.6c1.7,0,3,1.4,3,3v28.2
	C85.7,82.8,84.3,84.1,82.7,84.1z"/>
<path class="st6" d="M61.7,0.1h-51c-1.7,0-3-1.4-3-3v-47.6c0-1.6,1.3-3,3-3h51c1.7,0,3,1.4,3,3v47.6C64.7-1.2,63.4,0.1,61.7,0.1z"/>
<g>
	<g>
		<path class="st3" d="M56.5,5.4c-2.1,1.9-8.8,12.5-8.7,15.2c-3.6-0.2-7,0.6-10,2.6c0-0.1,0.1-0.1,0.1-0.2c1.8-2.2,3.7-4.3,5.5-6.5
			c0.1-0.1,0.2-0.2,0.3-0.1c0.4,0.1,0.7-0.1,0.9-0.5c0.1-0.3,0-0.7-0.2-0.9c-0.3-0.2-0.7-0.2-1,0c-0.3,0.2-0.4,0.6-0.3,1
			c0,0.1,0,0.2,0,0.3c-1.9,2.2-3.7,4.4-5.6,6.6c0,0-0.1,0.1-0.1,0.1c1.6-3.4,1.8-6.8,1-10.4c2.7-0.3,10.9-9.6,12.4-12
			C52.7,2.2,54.6,3.8,56.5,5.4z"/>
	</g>
	<circle class="st0" cx="43.7" cy="15.8" r="1.3"/>
	
		<rect x="40.3" y="14.1" transform="matrix(0.7581 0.6522 -0.6522 0.7581 22.5554 -21.7893)" class="st0" width="0.7" height="10.7"/>
</g>
<path class="st6" d="M64.4,45.7H53.2c-1.7,0-3-1.3-3-3V-4.9c0-1.7,1.3-3,3-3h11.3c1.6,0,3,1.3,3,3v47.6
	C67.4,44.4,66.1,45.7,64.4,45.7z"/>
<rect y="0.1" class="st7" width="50" height="49.9"/>
</svg>
