<?xml version="1.0" encoding="utf-8"?>
<!-- Generator: Adobe Illustrator 19.1.0, SVG Export Plug-In . SVG Version: 6.00 Build 0)  -->
<!DOCTYPE svg PUBLIC "-//W3C//DTD SVG 1.1//EN" "http://www.w3.org/Graphics/SVG/1.1/DTD/svg11.dtd">
<svg version="1.1" id="Layer_1" xmlns="http://www.w3.org/2000/svg" xmlns:xlink="http://www.w3.org/1999/xlink" x="0px" y="0px"
	 viewBox="-124 126 50 50" style="enable-background:new -124 126 50 50;" xml:space="preserve">
<style type="text/css">
	.st0{fill:#E55E5D;}
	.st1{fill:none;}
	.st2{enable-background:new    ;}
	.st3{fill:#FFFFFF;}
	.st4{fill:none;stroke:#FFFFFF;stroke-width:0.4144;stroke-miterlimit:10;}
	.st5{fill:#E55E5D;stroke:#E55E5D;stroke-width:3;stroke-miterlimit:10;}
	.st6{fill:none;stroke:#FFFFFF;stroke-width:1.379;stroke-miterlimit:10;}
	.st7{fill:#5D5D5D;}
	.st8{fill:none;stroke:#E55E5D;stroke-width:3;stroke-miterlimit:10;}
	.st9{fill:#E55E5D;stroke:#FFFFFF;stroke-linecap:round;stroke-linejoin:round;stroke-miterlimit:10;}
	.st10{fill:#E55E5D;stroke:#E55E5D;stroke-width:2.7791;stroke-miterlimit:10;}
</style>
<rect x="-33.2" y="94.7" class="st0" width="49.8" height="49.8"/>
<rect x="-28.4" y="104.2" class="st1" width="41.1" height="44.1"/>
<text transform="matrix(1 0 0 1 -28.4292 130.1052)" class="st3" style="font-family:'Luna'; font-size:17.406px;">abc</text>
<text transform="matrix(1 0 0 1 -28.4292 130.1052)" class="st4" style="font-family:'Luna'; font-size:17.406px;">abc</text>
<line class="st4" x1="-33.2" y1="111.9" x2="16.6" y2="111.9"/>
<line class="st4" x1="-33.2" y1="105.2" x2="16.6" y2="105.2"/>
<line class="st4" x1="-33.2" y1="130" x2="16.6" y2="130"/>
<path class="st3" d="M-23.1,191.2h-34.3c-1.7,0-3-1.3-3-3V170c0-1.6,1.3-3,3-3h24.3c1.6,0,3,1.4,3,3v18.3
	C-20.1,189.9-21.4,191.2-23.1,191.2z"/>
<path class="st3" d="M-34.2,169.6h-11.9c-1.1,0-2-0.9-2-2v-3.7c0-1.1,0.9-2,2-2h11.9c1.1,0,2,0.9,2,2v3.7
	C-32.2,168.7-33.1,169.6-34.2,169.6z"/>
<g>
	<rect x="-124" y="126.3" class="st5" width="50" height="51"/>
	<path class="st0" d="M-83.5,150.6L-83.5,150.6c-1,0-1.8-0.8-1.8-1.8l0,0c0-1,0.8-1.8,1.8-1.8l0,0c1,0,1.8,0.8,1.8,1.8l0,0
		C-81.6,149.8-82.4,150.6-83.5,150.6z"/>
	<path class="st6" d="M-68.1,181.2h-47.5c-0.4,0-0.7-0.2-0.7-0.5v-47.2c0-0.3,0.4-0.5,0.7-0.5h33c0.4,0,0.7,0.2,0.7,0.5v47.3
		C-67.4,181-67.8,181.2-68.1,181.2z"/>
	<path class="st3" d="M-92.9,143.7h-20.2c-0.3,0-0.5-0.2-0.5-0.5v-6.7c0-0.3,0.2-0.5,0.5-0.5h20.2c0.3,0,0.5,0.2,0.5,0.5v6.7
		C-92.4,143.5-92.6,143.7-92.9,143.7z"/>
	<path class="st3" d="M-100.1,163h-13c-0.3,0-0.5-0.2-0.5-0.5v-15.2c0-0.3,0.2-0.5,0.5-0.5h13c0.3,0,0.5,0.2,0.5,0.5v15.2
		C-99.6,162.7-99.8,163-100.1,163z"/>
	<path class="st3" d="M-85.1,148.6h-12.2c-0.3,0-0.5-0.2-0.5-0.5v-0.8c0-0.3,0.2-0.5,0.5-0.5h12.1c0.3,0,0.5,0.2,0.5,0.5v0.8
		C-84.6,148.4-84.9,148.6-85.1,148.6z"/>
	<path class="st3" d="M-85.1,151.5h-12.2c-0.3,0-0.5-0.2-0.5-0.5v-0.8c0-0.3,0.2-0.5,0.5-0.5h12.1c0.3,0,0.5,0.2,0.5,0.5v0.8
		C-84.6,151.3-84.9,151.5-85.1,151.5z"/>
	<path class="st3" d="M-85.1,154.5h-12.2c-0.3,0-0.5-0.2-0.5-0.5v-0.8c0-0.3,0.2-0.5,0.5-0.5h12.1c0.3,0,0.5,0.2,0.5,0.5v0.8
		C-84.6,154.2-84.9,154.5-85.1,154.5z"/>
	<path class="st3" d="M-85.1,157.1h-12.2c-0.3,0-0.5-0.2-0.5-0.5v-0.8c0-0.3,0.2-0.5,0.5-0.5h12.1c0.3,0,0.5,0.2,0.5,0.5v0.8
		C-84.6,156.9-84.9,157.1-85.1,157.1z"/>
	<path class="st3" d="M-85.1,160h-12.2c-0.3,0-0.5-0.2-0.5-0.5v-0.8c0-0.3,0.2-0.5,0.5-0.5h12.1c0.3,0,0.5,0.2,0.5,0.5v0.8
		C-84.6,159.8-84.9,160-85.1,160z"/>
	<path class="st3" d="M-100.6,169.4h-12.1c-0.3,0-0.5-0.2-0.5-0.5v-0.8c0-0.3,0.2-0.5,0.5-0.5h12.1c0.3,0,0.5,0.2,0.5,0.5v0.8
		C-100.1,169.2-100.3,169.4-100.6,169.4z"/>
	<path class="st3" d="M-100.6,172.3h-12.1c-0.3,0-0.5-0.2-0.5-0.5V171c0-0.3,0.2-0.5,0.5-0.5h12.1c0.3,0,0.5,0.2,0.5,0.5v0.8
		C-100.1,172.1-100.3,172.3-100.6,172.3z"/>
	<path class="st3" d="M-84.7,178.1h-28c-0.3,0-0.5-0.2-0.5-0.5v-0.8c0-0.3,0.2-0.5,0.5-0.5h28c0.3,0,0.5,0.2,0.5,0.5v0.8
		C-84.2,177.9-84.4,178.1-84.7,178.1z"/>
	<path class="st3" d="M-84.7,180.5h-28c-0.3,0-0.5-0.2-0.5-0.5v-0.8c0-0.3,0.2-0.5,0.5-0.5h28c0.3,0,0.5,0.2,0.5,0.5v0.8
		C-84.2,180.3-84.4,180.5-84.7,180.5z"/>
	<rect x="-131.8" y="176" class="st7" width="60.8" height="10.3"/>
	<rect x="-124.3" y="124.9" class="st8" width="51.4" height="51.1"/>
	<polygon class="st9" points="-90.1,140.8 -90.1,133 -82.3,140.8 	"/>
	<polygon class="st10" points="-91,129.7 -80.4,139.9 -80.5,128.8 	"/>
	<path class="st3" d="M-84.7,172.3h-13c-0.3,0-0.5-0.2-0.5-0.5v-6.9c0-0.3,0.2-0.5,0.5-0.5h13c0.3,0,0.5,0.2,0.5,0.5v6.9
		C-84.2,172.1-84.4,172.3-84.7,172.3z"/>
	<path class="st3" d="M-85.1,163h-12.2c-0.3,0-0.5-0.2-0.5-0.5v-0.8c0-0.3,0.2-0.5,0.5-0.5h12.1c0.3,0,0.5,0.2,0.5,0.5v0.8
		C-84.6,162.7-84.9,163-85.1,163z"/>
	<path class="st3" d="M-100.6,166.5h-12.1c-0.3,0-0.5-0.2-0.5-0.5v-0.8c0-0.3,0.2-0.5,0.5-0.5h12.1c0.3,0,0.5,0.2,0.5,0.5v0.8
		C-100.1,166.2-100.3,166.5-100.6,166.5z"/>
</g>
</svg>
