<?xml version="1.0" encoding="utf-8"?>
<!-- Generator: Adobe Illustrator 19.1.0, SVG Export Plug-In . SVG Version: 6.00 Build 0)  -->
<!DOCTYPE svg PUBLIC "-//W3C//DTD SVG 1.1//EN" "http://www.w3.org/Graphics/SVG/1.1/DTD/svg11.dtd">
<svg version="1.1" id="Layer_1" xmlns="http://www.w3.org/2000/svg" xmlns:xlink="http://www.w3.org/1999/xlink" x="0px" y="0px"
	 viewBox="0 0 50 50" style="enable-background:new 0 0 50 50;" xml:space="preserve">
<style type="text/css">
	.st0{fill:#E55E5D;}
	.st1{fill:none;}
	.st2{enable-background:new    ;}
	.st3{fill:#FFFFFF;}
	.st4{fill:none;stroke:#FFFFFF;stroke-width:0.4144;stroke-miterlimit:10;}
	.st5{fill:none;stroke:#E55E5D;stroke-width:3;stroke-miterlimit:10;}
	.st6{fill:none;stroke:#E55E5D;stroke-miterlimit:10;}
</style>
<rect class="st0" width="50" height="50"/>
<rect x="90.8" y="-31.3" class="st0" width="49.8" height="49.8"/>
<rect x="95.6" y="-21.8" class="st1" width="41.1" height="44.1"/>
<text transform="matrix(1 0 0 1 95.5708 4.1052)" class="st3" style="font-family:'Luna'; font-size:17.406px;">abc</text>
<text transform="matrix(1 0 0 1 95.5708 4.1052)" class="st4" style="font-family:'Luna'; font-size:17.406px;">abc</text>
<line class="st4" x1="90.8" y1="-14.1" x2="140.6" y2="-14.1"/>
<line class="st4" x1="90.8" y1="-20.8" x2="140.6" y2="-20.8"/>
<line class="st4" x1="90.8" y1="4" x2="140.6" y2="4"/>
<path class="st3" d="M41.9,39.6H7.6c-1.7,0-3-1.3-3-3V18.4c0-1.6,1.3-3,3-3h24.3c1.6,0,3,1.4,3,3v18.3
	C44.9,38.3,43.6,39.6,41.9,39.6z"/>
<circle class="st5" cx="24.8" cy="27.5" r="6.1"/>
<path class="st3" d="M30.8,18H18.9c-1.1,0-2-0.9-2-2v-3.7c0-1.1,0.9-2,2-2h11.9c1.1,0,2,0.9,2,2V16C32.8,17.1,31.9,18,30.8,18z"/>
<path class="st0" d="M38.3,20L38.3,20c-0.9,0-1.6-0.7-1.6-1.6l0,0c0-0.9,0.7-1.6,1.6-1.6l0,0c0.9,0,1.6,0.7,1.6,1.6l0,0
	C39.9,19.3,39.2,20,38.3,20z"/>
<line class="st6" x1="3.2" y1="23.5" x2="20.2" y2="23.5"/>
<line class="st6" x1="28.7" y1="23.5" x2="45.7" y2="23.5"/>
</svg>
