<?xml version="1.0" encoding="utf-8"?>
<!-- Generator: Adobe Illustrator 19.1.0, SVG Export Plug-In . SVG Version: 6.00 Build 0)  -->
<!DOCTYPE svg PUBLIC "-//W3C//DTD SVG 1.1//EN" "http://www.w3.org/Graphics/SVG/1.1/DTD/svg11.dtd">
<svg version="1.1" id="Layer_1" xmlns="http://www.w3.org/2000/svg" xmlns:xlink="http://www.w3.org/1999/xlink" x="0px" y="0px"
	 viewBox="0 0 50 50" style="enable-background:new 0 0 50 50;" xml:space="preserve">
<style type="text/css">
	.st0{fill:#E55E5D;}
	.st1{fill:#FFFFFF;}
	.st2{fill:none;}
	.st3{font-family:'Nickainley';}
	.st4{font-size:60px;}
	.st5{letter-spacing:-1;}
	.st6{fill:none;stroke:#FFFFFF;stroke-width:0.4144;stroke-miterlimit:10;}
	.st7{fill:#5D5E5E;}
</style>
<rect x="0.1" y="0.1" class="st0" width="49.8" height="49.8"/>
<g>
	<path class="st1" d="M56.4,7.5c-2.2,1.8-9,12.3-8.9,15.1c-3.6-0.2-7,0.5-10.1,2.4c0-0.1,0.1-0.1,0.1-0.2c1.9-2.1,3.7-4.2,5.6-6.4
		c0.1-0.1,0.2-0.1,0.4-0.1c0.4,0.1,0.7-0.1,0.9-0.5c0.1-0.3,0.1-0.7-0.2-1c-0.3-0.2-0.7-0.3-1,0c-0.3,0.2-0.4,0.6-0.3,1
		c0,0.1,0,0.2,0,0.3c-1.9,2.2-3.8,4.3-5.7,6.5l-0.1,0.1c1.6-3.3,1.9-6.8,1.2-10.4C41,14,49.4,4.9,50.9,2.5
		C52.7,4.2,54.6,5.9,56.4,7.5z"/>
</g>
<rect x="9.1" y="2" class="st2" width="40.9" height="47"/>
<text transform="matrix(1 0 0 1 9.0989 40.4257)" class="st1 st3 st4 st5">a</text>
<text transform="matrix(1 0 0 1 9.0989 40.4257)" class="st6 st3 st4 st5">a</text>
<path class="st7" d="M82.7,84.7h-94.6c-1.6,0-3-1.4-3-3V53.5c0-1.6,1.4-3,3-3h94.6c1.7,0,3,1.4,3,3v28.2
	C85.7,83.4,84.3,84.7,82.7,84.7z"/>
<path class="st7" d="M64.2,45.7H52.9c-1.7,0-3-1.3-3-3V-4.9c0-1.7,1.3-3,3-3h11.3c1.7,0,3,1.3,3,3v47.6
	C67.2,44.4,65.8,45.7,64.2,45.7z"/>
</svg>
