<?xml version="1.0" encoding="utf-8"?>
<!-- Generator: Adobe Illustrator 19.1.0, SVG Export Plug-In . SVG Version: 6.00 Build 0)  -->
<!DOCTYPE svg PUBLIC "-//W3C//DTD SVG 1.1//EN" "http://www.w3.org/Graphics/SVG/1.1/DTD/svg11.dtd">
<svg version="1.1" id="Layer_1" xmlns="http://www.w3.org/2000/svg" xmlns:xlink="http://www.w3.org/1999/xlink" x="0px" y="0px"
	 viewBox="0 0 50 50" style="enable-background:new 0 0 50 50;" xml:space="preserve">
<style type="text/css">
	.st0{fill:#FFFFFF;stroke:#FFFFFF;stroke-width:0.9025;stroke-miterlimit:10;}
	.st1{fill:#FFFFFF;stroke:#FFFFFF;stroke-width:0.8664;stroke-miterlimit:10;}
	.st2{fill:#E55E5D;}
	.st3{fill:#5D5E5E;}
	.st4{fill:#FFFFFF;}
</style>
<path class="st0" d="M28.6,29.9h-7.1c-1.7,0-3-1.4-3-3v-6.3c0-1.6,1.3-3,3-3h7.1c1.7,0,3,1.4,3,3v6.3C31.6,28.5,30.3,29.9,28.6,29.9
	z"/>
<path class="st1" d="M25.6,36.9h-1.4c-1.6,0-3-1.3-3-3V28c0-1.6,1.4-3,3-3h1.4c1.6,0,3,1.4,3,3v5.9C28.6,35.6,27.2,36.9,25.6,36.9z"
	/>
<rect x="0.1" y="0.1" class="st2" width="49.8" height="49.8"/>
<path class="st3" d="M64.2,45.7H52.9c-1.6,0-3-1.3-3-3V-4.9c0-1.7,1.4-3,3-3h11.3c1.7,0,3,1.3,3,3v47.6
	C67.2,44.4,65.8,45.7,64.2,45.7z"/>
<path class="st4" d="M24.9,37.4c-0.9,0-1.7,0-2.6,0c-0.7,0-1-0.3-1-1c0-2.2-0.7-4.1-1.8-5.8c-0.5-0.9-1.2-1.8-1.6-2.7
	c-1.3-2.6-1.5-5.2-0.4-7.9s3.4-4.2,6.2-4.6c4.5-0.7,8.3,2.4,9.1,6.3c0.5,2.3,0.1,4.6-1.1,6.7c-0.6,1-1.3,2-1.9,3.1
	c-0.9,1.5-1.4,3.2-1.4,5.1c0,0.6-0.3,0.9-0.9,0.9C26.7,37.4,25.8,37.4,24.9,37.4L24.9,37.4z M24.9,35.8c0.5,0,1.1,0,1.7,0
	c0.3,0,0.4-0.1,0.4-0.4c0-0.5,0.1-0.9,0.2-1.4c0.3-1.6,1.1-3.1,1.9-4.4c0.5-0.9,1.1-1.7,1.5-2.6c0.7-1.4,1-3,0.8-4.6
	c-0.4-2.6-2.3-4.8-4.9-5.4s-5.3,0.4-6.9,2.4C18,21.6,18,24,19,26.4c0.5,1.2,1.2,2.2,1.8,3.2c1.1,1.8,1.9,3.6,2.1,5.8
	c0,0.3,0.1,0.3,0.4,0.3C23.8,35.8,24.4,35.8,24.9,35.8z"/>
<path class="st4" d="M25.6,12.6h-1.1c-0.2,0-0.3-0.1-0.3-0.3l-0.1-5.6c0-0.2,0.1-0.3,0.3-0.3h1.1c0.2,0,0.3,0.1,0.3,0.3l0.1,5.6
	C25.9,12.5,25.8,12.6,25.6,12.6z"/>
<path class="st4" d="M29.9,14.2L29,13.8c-0.1-0.1-0.2-0.3-0.1-0.4l2.5-5.1c0.1-0.1,0.3-0.2,0.4-0.1l0.9,0.5c0.1,0.1,0.2,0.3,0.1,0.4
	l-2.5,5.1C30.2,14.2,30,14.2,29.9,14.2z"/>
<path class="st4" d="M33,17.2l-0.6-0.8c-0.1-0.1-0.1-0.3,0.1-0.4l4.5-3.3c0.1-0.1,0.3-0.1,0.4,0.1l0.6,0.8c0.1,0.1,0.1,0.3-0.1,0.4
	l-4.5,3.3C33.3,17.3,33.1,17.3,33,17.2z"/>
<path class="st4" d="M34.9,20.8l-0.3-1c0-0.2,0-0.3,0.2-0.4l5.4-1.6c0.2,0,0.3,0,0.4,0.2l0.3,1c0,0.2,0,0.3-0.2,0.4L35.3,21
	C35.1,21,35,20.9,34.9,20.8z"/>
<path class="st4" d="M21.7,39.7l0-1c0.1-0.2,0.1-0.3,0.3-0.3l5.7,0c0.2,0.1,0.3,0.1,0.3,0.3l0,1c-0.1,0.2-0.1,0.3-0.3,0.3l-5.7,0
	C21.9,39.9,21.8,39.8,21.7,39.7z"/>
<path class="st4" d="M21.7,41.9l0-1c0.1-0.2,0.1-0.3,0.3-0.3l5.7,0c0.2,0.1,0.3,0.1,0.3,0.3l0,1c-0.1,0.2-0.1,0.3-0.3,0.3l-5.7,0
	C21.9,42.1,21.8,42,21.7,41.9z"/>
<path class="st4" d="M15,20.8l0.3-1c0-0.2,0-0.3-0.2-0.4l-5.4-1.6c-0.2,0-0.3,0-0.4,0.2L9,19c0,0.2,0,0.3,0.2,0.4l5.4,1.6
	C14.8,21,15,20.9,15,20.8z"/>
<path class="st4" d="M19.8,14.3l0.9-0.5c0.1-0.1,0.2-0.3,0.1-0.4l-2.5-5.1c-0.1-0.1-0.3-0.2-0.4-0.1L17,8.8
	c-0.1,0.1-0.1,0.2-0.1,0.4l2.5,5.1C19.5,14.3,19.7,14.4,19.8,14.3z"/>
<path class="st4" d="M17,17.3l0.6-0.8c0.1-0.1,0.1-0.3-0.1-0.4L13,12.8c-0.1-0.1-0.3-0.1-0.4,0.1L12,13.7c-0.1,0.1-0.1,0.3,0.1,0.4
	l4.5,3.3C16.7,17.5,16.9,17.4,17,17.3z"/>
<path class="st4" d="M20.1,25c0,0-1.4-5.5,4.2-6.6C24.3,18.4,20.8,19.8,20.1,25z"/>
</svg>
