<?xml version="1.0" encoding="utf-8"?>
<!-- Generator: Adobe Illustrator 19.1.0, SVG Export Plug-In . SVG Version: 6.00 Build 0)  -->
<!DOCTYPE svg PUBLIC "-//W3C//DTD SVG 1.1//EN" "http://www.w3.org/Graphics/SVG/1.1/DTD/svg11.dtd">
<svg version="1.1" id="Layer_1" xmlns="http://www.w3.org/2000/svg" xmlns:xlink="http://www.w3.org/1999/xlink" x="0px" y="0px"
	 viewBox="0 0 50 50" style="enable-background:new 0 0 50 50;" xml:space="preserve">
<style type="text/css">
	.st0{fill:#E55E5D;}
	.st1{fill:#FFFFFF;stroke:#FFFFFF;stroke-width:0.4144;stroke-miterlimit:10;}
	.st2{fill:none;stroke:#FFFFFF;stroke-width:0.4144;stroke-miterlimit:10;}
	.st3{fill:#FFFFFF;}
	.st4{fill:none;stroke:#E55E5D;stroke-width:3;stroke-miterlimit:10;}
	.st5{fill:none;stroke:#E55E5D;stroke-width:0.6226;stroke-miterlimit:10;}
	.st6{fill:none;}
	.st7{font-family:'Nickainley';}
	.st8{font-size:60px;}
	.st9{letter-spacing:-2;}
	.st10{fill:#5D5E5E;}
	.st11{fill:none;stroke:#E55E5D;stroke-width:2;stroke-miterlimit:10;}
</style>
<rect x="14.9" y="-133.7" class="st0" width="50" height="50"/>
<rect x="90.8" y="-31.3" class="st0" width="49.8" height="49.8"/>
<rect x="0.1" y="0.1" class="st0" width="49.8" height="49.8"/>
<rect x="95.6" y="-21.8" class="st6" width="41.1" height="44.1"/>
<text transform="matrix(1 0 0 1 95.5708 4.1052)" class="st1" style="font-family:'Luna'; font-size:17.406px;">abc</text>
<line class="st2" x1="90.8" y1="-14.1" x2="140.6" y2="-14.1"/>
<line class="st2" x1="90.8" y1="-20.8" x2="140.6" y2="-20.8"/>
<line class="st2" x1="90.8" y1="4" x2="140.6" y2="4"/>
<path class="st3" d="M56.8-94.1H22.5c-1.6,0-3-1.3-3-3v-18.3c0-1.7,1.4-3,3-3h34.3c1.7,0,3,1.3,3,3v18.3
	C59.8-95.5,58.5-94.1,56.8-94.1z"/>
<circle class="st4" cx="39.7" cy="-106.2" r="6.1"/>
<path class="st3" d="M45.7-115.8H33.8c-1.1,0-2-0.9-2-2v-3.7c0-1.1,0.9-2,2-2h11.9c1.1,0,2,0.9,2,2v3.7
	C47.7-116.7,46.8-115.8,45.7-115.8z"/>
<path class="st0" d="M53.2-113.8L53.2-113.8c-0.9,0-1.6-0.7-1.6-1.6v0c0-0.9,0.7-1.6,1.6-1.6h0c0.9,0,1.6,0.7,1.6,1.6v0
	C54.8-114.5,54.1-113.8,53.2-113.8z"/>
<line class="st5" x1="18.1" y1="-110.3" x2="35.1" y2="-110.3"/>
<line class="st5" x1="43.6" y1="-110.3" x2="60.6" y2="-110.3"/>
<g>
	<path class="st3" d="M56.4,7.5c-2.2,1.8-9,12.3-8.9,15.1c-3.6-0.2-7,0.5-10.1,2.4c0-0.1,0.1-0.1,0.1-0.2c1.9-2.1,3.7-4.2,5.6-6.4
		c0.1-0.1,0.2-0.1,0.4-0.1c0.4,0.1,0.7-0.1,0.9-0.5c0.1-0.3,0.1-0.7-0.2-1c-0.3-0.2-0.7-0.3-1,0c-0.3,0.2-0.4,0.6-0.3,1
		c0,0.1,0,0.2,0,0.3c-1.9,2.2-3.8,4.3-5.7,6.5c0,0-0.1,0.1-0.1,0.1c1.6-3.3,1.9-6.8,1.2-10.4c2.7-0.3,11.1-9.4,12.6-11.8
		C52.7,4.2,54.6,5.9,56.4,7.5z"/>
</g>
<rect x="9.1" y="2" class="st6" width="40.9" height="47"/>
<text transform="matrix(1 0 0 1 9.0989 40.4257)" class="st1 st7 st8 st9">a</text>
<path class="st10" d="M82.7,84.1h-94.6c-1.6,0-3-1.4-3-3V52.9c0-1.6,1.4-3,3-3h94.6c1.7,0,3,1.4,3,3v28.2
	C85.7,82.8,84.3,84.1,82.7,84.1z"/>
<path class="st10" d="M64.2,45.7H52.9c-1.7,0-3-1.3-3-3V-4.9c0-1.7,1.3-3,3-3h11.3c1.7,0,3,1.3,3,3v47.6
	C67.2,44.4,65.8,45.7,64.2,45.7z"/>
<rect x="-97.4" y="0.1" class="st0" width="49.8" height="49.8"/>
<path class="st10" d="M-14.8,85h-94.6c-1.7,0-3-1.4-3-3V53.7c0-1.6,1.3-3,3-3h94.6c1.7,0,3,1.4,3,3V82C-11.8,83.6-13.2,85-14.8,85z"
	/>
<path class="st10" d="M-33.3,45.7h-11.3c-1.7,0-3-1.3-3-3V-4.9c0-1.7,1.3-3,3-3h11.3c1.6,0,3,1.3,3,3v47.6
	C-30.3,44.4-31.7,45.7-33.3,45.7z"/>
<rect x="-199.3" y="0.1" class="st0" width="50.7" height="49.8"/>
<path class="st1" d="M-163.3,28.4c-0.2,0-0.3,0-0.4,0.1c-0.3,0.2-0.4,0.6-0.5,0.9c-0.6,2.1-1.5,4-2.7,5.8c-0.8,1.2-1.7,2.3-2.9,2.9
	c-0.3,0.2-0.6,0.3-1,0.2c-0.7-0.1-1-0.9-1.1-1.6c-0.3-2.6,0.4-5.3,1.5-7.7s2.5-4.7,3.7-7.1c0.4-0.7,0.7-1.5,0.6-2.3
	c-0.1-0.8-0.6-1.5-1.2-2c-0.9-0.9-2-1.7-3.2-2.2c-0.4,0.7-0.8,1.7-1,2.5c-1.3-1.9-3.8-3.1-6.1-2.9c-2.3,0.2-4.5,1.4-6.2,3
	c-3.7,3.4-5.7,8.5-5.3,13.4c0.2,2.3,1,4.7,2.7,6.1c1.5,1.2,3.6,1.7,5.5,1.3s3.6-1.6,4.8-3.2c0.3,1.2,0.7,2.4,1.5,3.4
	c0.8,1,2,1.6,3.2,1.7c2,0,3.6-1.6,4.7-3.2c1.6-2.3,2.8-4.8,3.4-7.5c0.1-0.2,0.1-0.5,0.2-0.7c0-0.2,0.2-0.4,0.1-0.6
	C-162.8,28.5-163,28.4-163.3,28.4z M-176.2,33.9c-1.4,1.8-3.2,3-5.3,3c-4,0-4.5-3.3-4.5-5.8c0-5.3,5.1-11.1,9.1-11.1
	c1.4,0,2.6,0.9,3.7,2.1C-174.6,25.2-176.2,29.9-176.2,33.9z"/>
<path class="st10" d="M-116.6,84.1h-94.6c-1.6,0-3-1.4-3-3V52.9c0-1.6,1.4-3,3-3h94.6c1.7,0,3,1.4,3,3v28.2
	C-113.6,82.8-115,84.1-116.6,84.1z"/>
<path class="st10" d="M-137.6,0.1h-51c-1.7,0-3-1.4-3-3v-47.6c0-1.6,1.3-3,3-3h51c1.7,0,3,1.4,3,3v47.6
	C-134.6-1.2-135.9,0.1-137.6,0.1z"/>
<g>
	<g>
		<path class="st3" d="M-142.8,5.4c-2.1,1.9-8.8,12.5-8.7,15.2c-3.6-0.2-7,0.6-10,2.6c0-0.1,0.1-0.1,0.1-0.2
			c1.8-2.2,3.7-4.3,5.5-6.5c0.1-0.1,0.2-0.2,0.3-0.1c0.4,0.1,0.7-0.1,0.9-0.5c0.1-0.3,0-0.7-0.2-0.9c-0.3-0.2-0.7-0.2-1,0
			c-0.3,0.2-0.4,0.6-0.3,1c0,0.1,0,0.2,0,0.3c-1.9,2.2-3.7,4.4-5.6,6.6c0,0-0.1,0.1-0.1,0.1c1.6-3.4,1.8-6.8,1-10.4
			c2.7-0.3,10.9-9.6,12.4-12C-146.6,2.2-144.7,3.8-142.8,5.4z"/>
	</g>
	<circle class="st0" cx="-155.6" cy="15.8" r="1.3"/>
	
		<rect x="-159" y="14.1" transform="matrix(0.7581 0.6522 -0.6522 0.7581 -25.6686 108.2056)" class="st0" width="0.7" height="10.7"/>
</g>
<path class="st10" d="M-134.9,45.7h-11.3c-1.6,0-3-1.3-3-3V-4.9c0-1.7,1.4-3,3-3h11.3c1.6,0,3,1.3,3,3v47.6
	C-131.9,44.4-133.2,45.7-134.9,45.7z"/>
<rect x="-199.3" y="0.1" class="st11" width="50" height="49.9"/>
<path class="st3" d="M-72.6,39.6c-1,0-1.9,0-2.9,0c-0.8,0-1.1-0.3-1.1-1.1c0-2.4-0.8-4.5-2-6.4c-0.6-1-1.3-2-1.8-3
	c-1.4-2.9-1.7-5.8-0.4-8.8c1.3-3,3.8-4.6,6.9-5.1c5-0.8,9.2,2.7,10.1,7c0.5,2.6,0.1,5.1-1.2,7.4c-0.7,1.1-1.4,2.2-2.1,3.4
	c-1,1.7-1.5,3.6-1.6,5.6c0,0.7-0.3,1-1,1C-70.6,39.6-71.6,39.6-72.6,39.6C-72.6,39.6-72.6,39.6-72.6,39.6z M-72.6,37.8
	c0.6,0,1.2,0,1.9,0c0.3,0,0.4-0.1,0.4-0.4c0-0.5,0.1-1,0.2-1.5c0.3-1.8,1.2-3.4,2.1-4.9c0.6-1,1.2-1.9,1.7-2.9
	c0.8-1.6,1.1-3.3,0.9-5.1c-0.4-2.9-2.6-5.3-5.4-6c-2.8-0.7-5.9,0.4-7.6,2.7c-1.8,2.4-1.8,5.1-0.7,7.7c0.5,1.3,1.3,2.4,2,3.6
	c1.2,2,2.1,4,2.3,6.4c0,0.3,0.1,0.3,0.4,0.3C-73.8,37.8-73.2,37.8-72.6,37.8z"/>
<path class="st3" d="M-69.1,41.4h-6.7c-0.2,0-0.3-0.1-0.3-0.3v-0.5c0-0.2,0.1-0.3,0.3-0.3h6.7c0.2,0,0.3,0.1,0.3,0.3v0.5
	C-68.8,41.3-68.9,41.4-69.1,41.4z"/>
<path class="st3" d="M-69.1,43.2h-6.7c-0.2,0-0.3-0.1-0.3-0.3v-0.5c0-0.2,0.1-0.3,0.3-0.3h6.7c0.2,0,0.3,0.1,0.3,0.3v0.5
	C-68.8,43-68.9,43.2-69.1,43.2z"/>
<path class="st3" d="M-69.1,44.9h-6.7c-0.2,0-0.3-0.1-0.3-0.3v-0.5c0-0.2,0.1-0.3,0.3-0.3h6.7c0.2,0,0.3,0.1,0.3,0.3v0.5
	C-68.8,44.8-68.9,44.9-69.1,44.9z"/>
<path class="st3" d="M-71.7,12.1l-1.2,0c-0.2,0-0.3-0.1-0.3-0.3l-0.1-6.2c0-0.2,0.1-0.3,0.3-0.3l1.2,0c0.2,0,0.3,0.1,0.3,0.3
	l0.1,6.2C-71.5,12-71.6,12.1-71.7,12.1z"/>
<path class="st3" d="M-67,13.9l-1-0.5c-0.1-0.1-0.2-0.3-0.1-0.4l2.8-5.6c0.1-0.1,0.3-0.2,0.4-0.1l1,0.5c0.1,0.1,0.2,0.3,0.1,0.4
	l-2.8,5.6C-66.7,13.9-66.9,13.9-67,13.9z"/>
<path class="st3" d="M-63.6,17.2l-0.7-0.9c-0.1-0.1-0.1-0.3,0.1-0.4l5-3.7c0.1-0.1,0.3-0.1,0.4,0.1l0.7,0.9c0.1,0.1,0.1,0.3-0.1,0.4
	l-5,3.7C-63.3,17.3-63.5,17.3-63.6,17.2z"/>
<path class="st3" d="M-61.5,21.2l-0.3-1.1c0-0.2,0-0.3,0.2-0.4l6-1.8c0.2,0,0.3,0,0.4,0.2l0.3,1.1c0,0.2,0,0.3-0.2,0.4l-6,1.8
	C-61.3,21.4-61.4,21.3-61.5,21.2z"/>
<path class="st3" d="M-83.6,21.2l0.3-1.1c0-0.2,0-0.3-0.2-0.4l-6-1.8c-0.2,0-0.3,0-0.4,0.2l-0.3,1.1c0,0.2,0,0.3,0.2,0.4l6,1.8
	C-83.8,21.4-83.6,21.3-83.6,21.2z"/>
<path class="st3" d="M-78.3,14l1-0.5c0.1-0.1,0.2-0.3,0.1-0.4l-2.8-5.6c-0.1-0.1-0.3-0.2-0.4-0.1l-1,0.5c-0.1,0.1-0.2,0.3-0.1,0.4
	l2.8,5.6C-78.6,14-78.4,14.1-78.3,14z"/>
<path class="st3" d="M-81.4,17.3l0.7-0.9c0.1-0.1,0.1-0.3-0.1-0.4l-5-3.7c-0.1-0.1-0.3-0.1-0.4,0.1l-0.7,0.9
	c-0.1,0.1-0.1,0.3,0.1,0.4l5,3.7C-81.7,17.5-81.5,17.4-81.4,17.3z"/>
<path class="st3" d="M-77.9,25.9c0,0-1.6-6.1,4.6-7.3C-73.3,18.6-76.5,20.3-77.9,25.9z"/>
</svg>
