<?xml version="1.0" encoding="utf-8"?>
<!-- Generator: Adobe Illustrator 19.1.0, SVG Export Plug-In . SVG Version: 6.00 Build 0)  -->
<!DOCTYPE svg PUBLIC "-//W3C//DTD SVG 1.1//EN" "http://www.w3.org/Graphics/SVG/1.1/DTD/svg11.dtd">
<svg version="1.1" id="Layer_1" xmlns="http://www.w3.org/2000/svg" xmlns:xlink="http://www.w3.org/1999/xlink" x="0px" y="0px"
	 viewBox="0 0 50 50" style="enable-background:new 0 0 50 50;" xml:space="preserve">
<style type="text/css">
	.st0{fill:#E55E5D;}
	.st1{fill:#FFFFFF;stroke:#FFFFFF;stroke-width:0.4144;stroke-miterlimit:10;}
	.st2{fill:none;stroke:#FFFFFF;stroke-width:0.4144;stroke-miterlimit:10;}
	.st3{fill:#FFFFFF;}
	.st4{fill:none;stroke:#E55E5D;stroke-width:3;stroke-miterlimit:10;}
	.st5{fill:none;stroke:#E55E5D;stroke-width:0.6226;stroke-miterlimit:10;}
	.st6{fill:#5D5E5E;}
	.st7{fill:none;stroke:#E55E5D;stroke-width:2;stroke-miterlimit:10;}
</style>
<rect x="112.4" y="-133.7" class="st0" width="50" height="50"/>
<rect x="188.3" y="-31.3" class="st0" width="49.8" height="49.8"/>
<rect x="97.6" y="0.1" class="st0" width="49.8" height="49.8"/>
<rect x="193.1" y="-21.8" style="fill:none;" width="41.1" height="44.1"/>
<text transform="matrix(1 0 0 1 193.0651 4.1052)" class="st1" style="font-family:'Luna'; font-size:17.406px;">abc</text>
<line class="st2" x1="188.3" y1="-14.1" x2="238.1" y2="-14.1"/>
<line class="st2" x1="188.3" y1="-20.8" x2="238.1" y2="-20.8"/>
<line class="st2" x1="188.3" y1="4" x2="238.1" y2="4"/>
<path class="st3" d="M154.3-94.1H120c-1.7,0-3-1.3-3-3v-18.3c0-1.7,1.3-3,3-3h34.3c1.7,0,3,1.3,3,3v18.3
	C157.3-95.5,156-94.1,154.3-94.1z"/>
<circle class="st4" cx="137.2" cy="-106.2" r="6.1"/>
<path class="st3" d="M143.2-115.8h-11.9c-1.1,0-2-0.9-2-2v-3.7c0-1.1,0.9-2,2-2h11.9c1.1,0,2,0.9,2,2v3.7
	C145.2-116.7,144.3-115.8,143.2-115.8z"/>
<path class="st0" d="M150.7-113.8L150.7-113.8c-0.9,0-1.6-0.7-1.6-1.6v0c0-0.9,0.7-1.6,1.6-1.6h0c0.9,0,1.6,0.7,1.6,1.6v0
	C152.3-114.5,151.6-113.8,150.7-113.8z"/>
<line class="st5" x1="115.6" y1="-110.3" x2="132.6" y2="-110.3"/>
<line class="st5" x1="141.1" y1="-110.3" x2="158.1" y2="-110.3"/>
<g>
	<path class="st3" d="M153.9,7.5c-2.2,1.8-9,12.3-8.9,15.1c-3.6-0.2-7,0.5-10.1,2.4c0-0.1,0.1-0.1,0.1-0.2c1.9-2.1,3.7-4.2,5.6-6.4
		c0.1-0.1,0.2-0.1,0.4-0.1c0.4,0.1,0.7-0.1,0.9-0.5c0.1-0.3,0.1-0.7-0.2-1c-0.3-0.2-0.7-0.3-1,0c-0.3,0.2-0.4,0.6-0.3,1
		c0,0.1,0,0.2,0,0.3c-1.9,2.2-3.8,4.3-5.7,6.5c0,0-0.1,0.1-0.1,0.1c1.6-3.3,1.9-6.8,1.2-10.4c2.7-0.3,11.1-9.4,12.6-11.8
		C150.2,4.2,152.1,5.9,153.9,7.5z"/>
</g>
<rect x="106.6" y="2" style="fill:none;" width="40.9" height="47"/>
<text transform="matrix(1 0 0 1 106.5932 40.4257)" class="st1" style="font-family:'Nickainley'; font-size:60px; letter-spacing:-2;">a</text>
<path class="st6" d="M180.2,84.1H85.6c-1.6,0-3-1.4-3-3V52.9c0-1.6,1.4-3,3-3h94.6c1.6,0,3,1.4,3,3v28.2
	C183.2,82.8,181.8,84.1,180.2,84.1z"/>
<path class="st6" d="M161.7,45.7h-11.3c-1.6,0-3-1.3-3-3V-4.9c0-1.7,1.4-3,3-3h11.3c1.7,0,3,1.3,3,3v47.6
	C164.7,44.4,163.3,45.7,161.7,45.7z"/>
<rect x="0.1" y="0.1" class="st0" width="49.8" height="49.8"/>
<path class="st6" d="M82.7,84.1h-94.6c-1.7,0-3-1.4-3-3V52.9c0-1.6,1.3-3,3-3h94.6c1.6,0,3,1.4,3,3v28.2
	C85.7,82.8,84.3,84.1,82.7,84.1z"/>
<path class="st6" d="M64.2,45.7H52.9c-1.6,0-3-1.3-3-3V-4.9c0-1.7,1.4-3,3-3h11.3c1.7,0,3,1.3,3,3v47.6
	C67.2,44.4,65.8,45.7,64.2,45.7z"/>
<rect x="-101.8" y="0.1" class="st0" width="50.7" height="49.8"/>
<path class="st1" d="M-65.8,28.4c-0.2,0-0.3,0-0.4,0.1c-0.3,0.2-0.4,0.6-0.5,0.9c-0.6,2.1-1.5,4-2.7,5.8c-0.8,1.2-1.7,2.3-2.9,2.9
	c-0.3,0.2-0.6,0.3-1,0.2c-0.7-0.1-1-0.9-1.1-1.6c-0.3-2.6,0.4-5.3,1.5-7.7c1.1-2.4,2.5-4.7,3.7-7.1c0.4-0.7,0.7-1.5,0.6-2.3
	c-0.1-0.8-0.6-1.5-1.2-2c-0.9-0.9-2-1.7-3.2-2.2c-0.4,0.7-0.8,1.7-1,2.5c-1.3-1.9-3.8-3.1-6.1-2.9c-2.3,0.2-4.5,1.4-6.2,3
	c-3.7,3.4-5.7,8.5-5.3,13.4c0.2,2.3,1,4.7,2.7,6.1c1.5,1.2,3.6,1.7,5.5,1.3c1.9-0.4,3.6-1.6,4.8-3.2c0.3,1.2,0.7,2.4,1.5,3.4
	c0.8,1,2,1.6,3.2,1.7c2,0,3.6-1.6,4.7-3.2c1.6-2.3,2.8-4.8,3.4-7.5c0.1-0.2,0.1-0.5,0.2-0.7c0-0.2,0.2-0.4,0.1-0.6
	C-65.3,28.5-65.5,28.4-65.8,28.4z M-78.7,33.9c-1.4,1.8-3.2,3-5.3,3c-4,0-4.5-3.3-4.5-5.8c0-5.3,5.1-11.1,9.1-11.1
	c1.4,0,2.6,0.9,3.7,2.1C-77.1,25.2-78.7,29.9-78.7,33.9z"/>
<path class="st6" d="M-19.1,84.1h-94.6c-1.6,0-3-1.4-3-3V52.9c0-1.6,1.4-3,3-3h94.6c1.7,0,3,1.4,3,3v28.2
	C-16.1,82.8-17.5,84.1-19.1,84.1z"/>
<path class="st6" d="M-40.1,0.1h-51c-1.7,0-3-1.4-3-3v-47.6c0-1.6,1.3-3,3-3h51c1.7,0,3,1.4,3,3v47.6C-37.1-1.2-38.4,0.1-40.1,0.1z"
	/>
<g>
	<g>
		<path class="st3" d="M-45.3,5.4c-2.1,1.9-8.8,12.5-8.7,15.2c-3.6-0.2-7,0.6-10,2.6c0-0.1,0.1-0.1,0.1-0.2c1.8-2.2,3.7-4.3,5.5-6.5
			c0.1-0.1,0.2-0.2,0.3-0.1c0.4,0.1,0.7-0.1,0.9-0.5c0.1-0.3,0-0.7-0.2-0.9c-0.3-0.2-0.7-0.2-1,0c-0.3,0.2-0.4,0.6-0.3,1
			c0,0.1,0,0.2,0,0.3c-1.9,2.2-3.7,4.4-5.6,6.6c0,0-0.1,0.1-0.1,0.1c1.6-3.4,1.8-6.8,1-10.4c2.7-0.3,10.9-9.6,12.4-12
			C-49.1,2.2-47.2,3.8-45.3,5.4z"/>
	</g>
	<circle class="st0" cx="-58.1" cy="15.8" r="1.3"/>
	
		<rect x="-61.5" y="14.1" transform="matrix(0.7581 0.6522 -0.6522 0.7581 -2.0808 44.6213)" class="st0" width="0.7" height="10.7"/>
</g>
<path class="st6" d="M-37.4,45.7h-11.3c-1.6,0-3-1.3-3-3V-4.9c0-1.7,1.4-3,3-3h11.3c1.6,0,3,1.3,3,3v47.6
	C-34.4,44.4-35.7,45.7-37.4,45.7z"/>
<rect x="-101.8" y="0.1" class="st7" width="50" height="49.9"/>
<path class="st3" d="M24.9,39.6c-1,0-1.9,0-2.9,0c-0.8,0-1.1-0.3-1.1-1.1c0-2.4-0.8-4.5-2-6.4c-0.6-1-1.3-2-1.8-3
	c-1.4-2.9-1.7-5.8-0.4-8.8c1.3-3,3.8-4.6,6.9-5.1c5-0.8,9.2,2.7,10.1,7c0.5,2.6,0.1,5.1-1.2,7.4c-0.7,1.1-1.4,2.2-2.1,3.4
	c-1,1.7-1.5,3.6-1.6,5.6c0,0.7-0.3,1-1,1C26.9,39.6,25.9,39.6,24.9,39.6C24.9,39.6,24.9,39.6,24.9,39.6z M24.9,37.8
	c0.6,0,1.2,0,1.9,0c0.3,0,0.4-0.1,0.4-0.4c0-0.5,0.1-1,0.2-1.5c0.3-1.8,1.2-3.4,2.1-4.9c0.6-1,1.2-1.9,1.7-2.9
	c0.8-1.6,1.1-3.3,0.9-5.1c-0.4-2.9-2.6-5.3-5.4-6c-2.8-0.7-5.9,0.4-7.6,2.7c-1.8,2.4-1.8,5.1-0.7,7.7c0.5,1.3,1.3,2.4,2,3.6
	c1.2,2,2.1,4,2.3,6.4c0,0.3,0.1,0.3,0.4,0.3C23.7,37.8,24.3,37.8,24.9,37.8z"/>
<path class="st3" d="M28.4,41.4h-6.7c-0.2,0-0.3-0.1-0.3-0.3v-0.5c0-0.2,0.1-0.3,0.3-0.3h6.7c0.2,0,0.3,0.1,0.3,0.3v0.5
	C28.7,41.3,28.5,41.4,28.4,41.4z"/>
<path class="st3" d="M28.4,43.2h-6.7c-0.2,0-0.3-0.1-0.3-0.3v-0.5c0-0.2,0.1-0.3,0.3-0.3h6.7c0.2,0,0.3,0.1,0.3,0.3v0.5
	C28.7,43,28.5,43.2,28.4,43.2z"/>
<path class="st3" d="M28.4,44.9h-6.7c-0.2,0-0.3-0.1-0.3-0.3v-0.5c0-0.2,0.1-0.3,0.3-0.3h6.7c0.2,0,0.3,0.1,0.3,0.3v0.5
	C28.7,44.8,28.5,44.9,28.4,44.9z"/>
<path class="st3" d="M25.7,12.1l-1.2,0c-0.2,0-0.3-0.1-0.3-0.3l-0.1-6.2c0-0.2,0.1-0.3,0.3-0.3l1.2,0c0.2,0,0.3,0.1,0.3,0.3l0.1,6.2
	C26,12,25.9,12.1,25.7,12.1z"/>
<path class="st3" d="M30.4,13.9l-1-0.5c-0.1-0.1-0.2-0.3-0.1-0.4l2.8-5.6c0.1-0.1,0.3-0.2,0.4-0.1l1,0.5c0.1,0.1,0.2,0.3,0.1,0.4
	l-2.8,5.6C30.8,13.9,30.6,13.9,30.4,13.9z"/>
<path class="st3" d="M33.9,17.2l-0.7-0.9c-0.1-0.1-0.1-0.3,0.1-0.4l5-3.7c0.1-0.1,0.3-0.1,0.4,0.1l0.7,0.9c0.1,0.1,0.1,0.3-0.1,0.4
	l-5,3.7C34.2,17.3,34,17.3,33.9,17.2z"/>
<path class="st3" d="M36,21.2l-0.3-1.1c0-0.2,0-0.3,0.2-0.4l6-1.8c0.2,0,0.3,0,0.4,0.2l0.3,1.1c0,0.2,0,0.3-0.2,0.4l-6,1.8
	C36.2,21.4,36.1,21.3,36,21.2z"/>
<path class="st3" d="M13.9,21.2l0.3-1.1c0-0.2,0-0.3-0.2-0.4l-6-1.8c-0.2,0-0.3,0-0.4,0.2l-0.3,1.1c0,0.2,0,0.3,0.2,0.4l6,1.8
	C13.7,21.4,13.9,21.3,13.9,21.2z"/>
<path class="st3" d="M19.2,14l1-0.5c0.1-0.1,0.2-0.3,0.1-0.4l-2.8-5.6c-0.1-0.1-0.3-0.2-0.4-0.1l-1,0.5C16,8,16,8.1,16,8.3l2.8,5.6
	C18.9,14,19.1,14.1,19.2,14z"/>
<path class="st3" d="M16.1,17.3l0.7-0.9c0.1-0.1,0.1-0.3-0.1-0.4l-5-3.7c-0.1-0.1-0.3-0.1-0.4,0.1l-0.7,0.9
	c-0.1,0.1-0.1,0.3,0.1,0.4l5,3.7C15.8,17.5,16,17.4,16.1,17.3z"/>
<path class="st3" d="M19.6,25.9c0,0-1.6-6.1,4.6-7.3C24.2,18.6,21,20.3,19.6,25.9z"/>
</svg>
