<?xml version="1.0" encoding="utf-8"?>
<!-- Generator: Adobe Illustrator 19.1.0, SVG Export Plug-In . SVG Version: 6.00 Build 0)  -->
<!DOCTYPE svg PUBLIC "-//W3C//DTD SVG 1.1//EN" "http://www.w3.org/Graphics/SVG/1.1/DTD/svg11.dtd">
<svg version="1.1" id="Layer_1" xmlns="http://www.w3.org/2000/svg" xmlns:xlink="http://www.w3.org/1999/xlink" x="0px" y="0px"
	 viewBox="-124 126 50 50" style="enable-background:new -124 126 50 50;" xml:space="preserve">
<style type="text/css">
	.st0{fill:#FFFFFF;}
	.st1{fill:#E55E5D;}
	.st2{fill:none;}
	.st3{enable-background:new    ;}
	.st4{fill:none;stroke:#FFFFFF;stroke-width:0.4144;stroke-miterlimit:10;}
</style>
<path class="st0" d="M-80.9,165.6h-35.5c-1.7,0-3-1.4-3-3v-18.2c0-1.6,1.3-3,3-3h35.5c1.7,0,3,1.4,3,3v18.2
	C-77.9,164.2-79.2,165.6-80.9,165.6z"/>
<rect x="-124" y="126" class="st1" width="50" height="50"/>
<rect x="-33.2" y="94.7" class="st1" width="49.8" height="49.8"/>
<rect x="-28.4" y="104.2" class="st2" width="41.1" height="44.1"/>
<text transform="matrix(1 0 0 1 -28.4292 130.1052)" class="st0" style="font-family:'Luna'; font-size:17.406px;">abc</text>
<text transform="matrix(1 0 0 1 -28.4292 130.1052)" class="st4" style="font-family:'Luna'; font-size:17.406px;">abc</text>
<line class="st4" x1="-33.2" y1="111.9" x2="16.6" y2="111.9"/>
<line class="st4" x1="-33.2" y1="105.2" x2="16.6" y2="105.2"/>
<line class="st4" x1="-33.2" y1="130" x2="16.6" y2="130"/>
<g>
	<path class="st0" d="M-81.4,141.4h-9.8v-3.1c0-1.1-0.9-2-2-2h-11.9c-1.1,0-2,0.9-2,2v3.1h-9.9c-1.7,0-3,1.4-3,3v18.2
		c0,1.7,1.3,3,3,3h34.3c2.6,0,3.8-1,4.2-2.9v-18.3C-78.4,142.8-79.8,141.4-81.4,141.4z M-99.2,161.1c-4.2,0-7.6-3.4-7.6-7.6
		c0-4.2,3.4-7.6,7.6-7.6c4.2,0,7.6,3.4,7.6,7.6C-91.6,157.7-95,161.1-99.2,161.1z"/>
	<path class="st0" d="M-99.2,148.9c-2.5,0-4.6,2.1-4.6,4.6c0,2.5,2.1,4.6,4.6,4.6c2.5,0,4.6-2.1,4.6-4.6
		C-94.6,151-96.7,148.9-99.2,148.9z"/>
</g>
<path class="st1" d="M-85.7,146L-85.7,146c-0.9,0-1.6-0.7-1.6-1.6l0,0c0-0.9,0.7-1.6,1.6-1.6l0,0c0.9,0,1.6,0.7,1.6,1.6l0,0
	C-84.1,145.3-84.8,146-85.7,146z"/>
<g>
	<rect x="-120.8" y="149" class="st1" width="17" height="1"/>
</g>
<g>
	<rect x="-95.3" y="149" class="st1" width="17" height="1"/>
</g>
</svg>
