<?xml version="1.0" encoding="utf-8"?>
<!-- Generator: Adobe Illustrator 19.1.0, SVG Export Plug-In . SVG Version: 6.00 Build 0)  -->
<!DOCTYPE svg PUBLIC "-//W3C//DTD SVG 1.1//EN" "http://www.w3.org/Graphics/SVG/1.1/DTD/svg11.dtd">
<svg version="1.1" id="Layer_1" xmlns="http://www.w3.org/2000/svg" xmlns:xlink="http://www.w3.org/1999/xlink" x="0px" y="0px"
	 viewBox="0 0 449.8 200" style="enable-background:new 0 0 449.8 200;" xml:space="preserve">
<style type="text/css">
	.st0{fill:#59C6D2;}
</style>
<path class="st0" d="M388.1,104.8c-2.2,1.9-3.7,3.3-12.5,8.1c-17.8,9.8-39.8,9.4-60.5,10.7c-21.6,1.4-43.1,2.6-64.7,4.2
	c-15.2,1.1-30.4,3.1-45.6,4.9c-27.8,3.4-56.3,6.4-81.2,20.1c-13.2,7.3-23.5,21.8-21.2,37.7c22.6-25.3,58-34.4,90.1-39.1
	c41.5-6.1,83.1-11.1,124.9-14.1c21.7-1.6,45.3-3.9,63.5-17C384.5,117.7,389.9,109.7,388.1,104.8z"/>
<g>
	<path class="st0" d="M74.6,78.5C74,70.7,73,62.9,71.5,55.2c-2.1-10.7-4.6-20.9-10-30.4c-1.3-2.3-2.8-4.7-5.1-6.3
		c-1.3-0.9-4.6-2.7-6.2-1.5c-0.7,0.6,1.2,3.7,1.6,4.7c6.4,14.5,8.6,30.2,10.2,46.3c0.3,2.8,0.5,5.6,0.7,8.5c0,0.8,0.8,8,0.3,8.2
		c2-1,3.9-2,5.9-3c1.9-1,4.4-1.8,6.1-3.2C74.9,78.5,74.7,78.5,74.6,78.5z"/>
	<path class="st0" d="M114.9,67.5c-0.2-0.6-0.3-1.3-0.4-1.9c-1.7-18.1-4.8-36.5-13.9-52.2c-1.4-2.4-3.1-4.9-5.6-6.3
		c-1.6-0.9-4.3-1.9-6-1.3c-0.3,0.1-0.6,0.3-0.7,0.6c-0.1,0.3,0,0.7,0.2,1c4.6,8.9,7.3,18.7,9.6,28.4c0.4,1.7,0.8,3.4,1.2,5.1
		c0.4,2,0.8,4.1,1.2,6.1c0.4,2.1,0.7,4.1,1,6.2c0.3,2.1,0.6,4.1,0.8,6.2c0.2,2.1,0.4,4.2,0.6,6.2c0.2,2.1,0.3,4.2,0.4,6.2
		c0,0.7,0.1,1.3,0.1,2c3.9-2,7.8-4,11.8-6C115.1,67.8,115,67.7,114.9,67.5z"/>
	<path class="st0" d="M86.7,141.2c-3.5-7.8-5.5-16.2-6.9-24.7c-2.1-12.3-3.1-24.8-3-37.3c-3.4,1.5-6.8,3-10.2,4.5
		c-1.1,0.5-2.7,1.1-3.4,2.1c-0.7,1.1-0.3,2.7-0.3,4c0.1,3.4,0.3,6.9,0.4,10.3c0.6,16.3,1.5,33.4,9.3,47.7
		c2.9,5.3,6.9,10.3,12.2,13.1c5.4,2.8,12.3,3.1,17.3-0.4c0.7-0.5,1.4-1.1,1.3-2c-0.1-1-1.3-1.5-2.3-1.9c-6.7-2.3-11.2-8.6-14.2-15
		C86.9,141.7,86.8,141.5,86.7,141.2z"/>
	<path class="st0" d="M126,127.6c-6.2-7.2-7.8-17-7.6-27.1c0.1-7-0.3-14-0.5-21c0-1.3-1.2-13.7-0.6-13.9l-13.3,5.2
		c-2.1,0.8-1.2,11.2-1.2,12.9c0,8.4,0,17,1,25.4c0.9,8,2.6,17.7,7.4,24.3c4.4,6,11.6,8.1,18.8,7.1c3.2-0.5,5.3-2.2,5.6-4.4
		c0.2-1.3-1-1.7-1.9-2.3C130.5,132.1,128,130,126,127.6z"/>
	<path class="st0" d="M53.3,82.4c17.1-6.1,34.2-13.3,51.3-19.2c6.1-2.1,12.2-4.1,18.5-5.8c6.2-1.7,12.6-3.1,19-3.8
		c6.2-0.7,12.5-1.1,18.6,0.6c2.4,0.7,4.7,1.5,6.2,3.6c0.7,1,1.2,2.1,1.6,3.2c0.2,0.5,0.3,1.1,0.5,1.7c0,0.2,0.2,1.4,0.2,1.6
		c-2.8-1-29.2-1.7-43.4,3.7c-13.5,5.1-27,10.6-39.8,17.3C74.7,91.3,63.4,97.7,51,101.2c-11.4,3.2-27.2,4.3-35.7-5.8
		c-3-3.6-7.9-14-5.9-22.4c0.4,0.3,5.5,4.9,6.6,6C24.4,88,42.8,86.1,53.3,82.4z"/>
	<path class="st0" d="M178.7,68.3c-0.1-0.9-1.2-3.7-1.4-4.6c-0.8,2.9-3.5,9.2-5.2,12.6c0-0.1-3.1-7.7-7.6-7.8
		c-3.1-0.1-7.2,2.9-7.7,7.1c-0.8,6.7,5.4,11,9.4,10c1.5-0.4,2.8-1.5,4-2.8c0.1,0.4,0.2,0.9,0.2,1.3c0.9,6,1,11.7,0.2,17.5
		c-0.9,6.5-2.8,12.6-6.1,16.9c-3.3,4.3-7.9,6.8-12.6,5.9c-2.5-0.5-5-2-6.8-4.7c-3.6-5.4-3.5-14.8-3.2-20.3
		c1-17.4,10.9-25.8,11.8-28.3c1.3-3.6-11.3-1.3-17,5.9c-5.7,7.2-9.2,20-8.6,31.3c0.3,7,2.8,14.2,7.3,19.1c5.8,6.4,14.2,8.8,22.1,5.4
		c17.1-7.4,19.1-27.8,17.6-44.1c-0.3-3.4-0.5-5.8-1.5-9C175.3,76.6,178.1,71.1,178.7,68.3z M165.5,82.5c-2.5,0.2-5.4-3.2-5-6.7
		c0.5-3.5,4-4.2,6.2-2c1.4,1.4,2.3,3.2,2.9,5.5C168.6,81.1,167.7,82.3,165.5,82.5z M172.2,79.2L172.2,79.2L172.2,79.2L172.2,79.2z"
		/>
	<path class="st0" d="M282.4,73c-0.2,1.2-0.3,2.4-0.5,3.6c-0.2,1.8-0.8,7.2-0.7,9.1c0.3,5.3,1.1,9.1,3.5,14c3,6.2,9.8,9.1,15.5,5
		c6-4.3,7.4-9.8,8-18.6c0.8-10.2,8,28.9-17.5,28.2c-12.1-0.3-24.1-13.6-22-38c0.8-9.2,3.8-18.6,10.2-25.3c4.4-4.6,11.8-8.9,18.3-6.6
		c7.7,2.7,8.4,12.9,5.7,19.1c-1.3,2.9-3.1,5.4-5.2,7.8c-2.1,2.5-4.4,4.9-6.9,7.1c-2.6,2.2-4.1,3.6-6.5,5.8c-2.1,1.9-4.5,4.2-6.9,5.7
		c-1.3,0.8-2-3.1-2.2-4c-0.2-0.9,0-0.8,0.7-1c1.3-0.4,2.2-1,3.1-1.9c6.3-6.1,13.8-11.5,18.7-19c0.9-1.4,1.7-3.6,1.9-5.3
		c0.2-1.4,0.1-2.9-0.1-4.3c-0.4-2.7-1.2-5-4.3-3.6C287.1,54.7,283.7,64.6,282.4,73z"/>
	<path class="st0" d="M379,82c-1.3-5.1-3.9-9.9-6.8-14.3c-2.5-3.7-5.2-7.1-7.4-10.9c3-1.4,5.8-3.3,8.1-5.7c1.7-1.7,3.2-3.8,3.6-6.2
		c0.6-3.6-1.6-7.3-4.9-8.8c-3.3-1.5-7.3-1-10.2,1.1c-6.9,4.9-6.7,12.7-4,19.9c-1.3,0.4-4.2,0.6-4.1,1.9c0.1,1.1,3.8,0.2,4.8,0.1
		c0.4,0.9,0.7,1.6,1.1,2.4c2.4,4.7,5.4,9.1,7.5,13.9c1.3,2.9,2.2,6.1,2.1,9.3c-0.1,3.1-1.3,6.1-2.8,8.8c-1.3,2.4-3.5,5-6.2,4.7
		c-1.8-0.2-3.7-1.5-4.8-2.9c-1.2-1.6-2.3-5.5-2.8-5.2c-1.8,1-1.5,8.4,0.7,12.1c2.7,4.5,8.7,6.7,13.8,5.5c5.2-1.2,9.4-5.2,11.5-10.1
		C380.3,92.7,380.3,87.1,379,82z M363.9,55.2c-1.3-2.6-2.4-5.4-2.2-8.3c0.2-2.9,1.7-5.8,4.4-7c2.7-1.2,6.3,0.1,7.1,2.9
		c0.7,2.2-0.5,4.6-1.9,6.5c-1.8,2.4-4.6,4.1-7.5,5.7C363.8,54.9,364,55.3,363.9,55.2z"/>
	<path class="st0" d="M267.2,110.4c0.1-1.1,0-2.3-0.1-3.4c-0.2-3.1-0.6-6.1-0.9-9.2c-0.7-7.3-1.3-14.5-0.7-21.8
		c0.4-5,1.7-10.5,0.8-15.4c-0.9-5.2-3.4-10.6-8.2-12.7c-4-1.8-10.6-0.3-14.3,2.1c-3.7,2.4-6.3,7.3-8.5,11.1c0.1-0.2-0.3-2.3-0.4-2.4
		c-0.1-0.4-0.3-0.7-0.5-1.1c-0.3-0.6-0.7-1.2-1.2-1.8c-0.1-0.1-0.2-0.2-0.3-0.4c-1.3-1.4-3.1-2.4-4.9-2.9c-1.4-0.4-3.5-0.5-4.5,0.7
		c-1.5,1.7-0.8,4.4-0.5,6.5c0.3,2.5,0.6,5.1,0.7,7.6c1.1,15.6,1.7,29.4,4.4,44.8c0.1,1.5,0.2,3,0.4,4.5c0.2,1.2,0.6,2.6,1.6,3.4
		c0.4,0.3,0.8,0.4,1.2,0.4c3.3,0,8.1-3.3,7.8-7.5c-0.2-3.5-0.5-5.2-0.9-8.6c-1.3-11.4-2.2-22.2-2.2-33.9c0-1.4,0.1-2.8,0.5-4.1
		c0.3-1.2,1-2.3,1.6-3.3c1-1.6,7-7.2,10.9-6.7c4.4,0.6,4.5,15.9,4.6,17.5c0.2,2.2,0.2,16.2,0.9,28.6c0,0.7,0.1,1.5,0.1,2.2
		c0,1.5,0,3,0.2,4.6c0.2,1.6,0.3,3.3,0.5,4.9c0.2,1.2,0.6,2.6,1.8,3.4c0.4,0.3,0.9,0.4,1.3,0.4c2.6,0,5.3-1.4,6.9-3.3
		C266.7,113.4,267.1,111.9,267.2,110.4z"/>
	<path class="st0" d="M350.6,57.9c0.1-1.8,0-3.6-0.2-5.4c-0.5-3.6-1.8-7.3-4.5-9.7c-3.7-3.5-10.2-3.4-14.9-1.5s-8.5,7-11.1,11.4
		c-0.7-3.6-3.5-7.9-7-9c-1-0.3-2.1-0.5-3.1-0.2c-2.9,0.8-2.3,4.5-2.3,6.8c-0.1,3.3-0.1,6.5,0,9.8c0.1,6.5,0.3,13,0.5,19.5
		c0.2,5.5,0.4,11,0.6,16.5c0.1,4.2,0.3,10.6,0.9,14.8c0.2,1.3,0.5,2.7,1.6,3.3c0.9,0.6,2.1,0.4,3.2,0.1c2-0.6,3.9-1.7,5-3.4
		c1.5-2.4,1.4-7.8,1.1-10.6c-0.8-11.6-1-23.3-0.5-34.9c0.1-2.8,0.3-5.6,1.4-8.1c1.8-3.9,5.7-6.5,9.7-7.9c1-0.4,2-0.7,3-0.4
		c1.8,0.5,2.5,2.7,2.8,4.6c1.5,9.5,0.2,19.1-0.5,28.7c-0.6,7.8-0.8,18.6-0.7,26.4c0,1,0.1,2,0.6,2.8c1.2,1.9,4.1,1.6,6.2,0.9
		c2-0.7,4-1.7,5.1-3.5c1-1.6,1-3.7,1-5.6c-0.1-8.8-1-20.4-0.1-29.2C348.7,68.8,350.4,63.1,350.6,57.9z"/>
	<path class="st0" d="M225.2,85.5c0.3,8,1.5,11.5,0.8,20.2c-0.3,4-3.8,8.1-5.8,7.4c-2.7-0.9-1.5-13.5-1.4-16.5
		c0.2-6.8,1-11.4,1.1-18.2c0.2-11.1-1.1-23.2-11.6-25.5c-11.6-2.5-19.6,13.9-19.6,13.9c-0.2-0.5-4.6-7.8-8-8.2
		c-1.9-0.2-3.7,0.3-4,2.3c-0.2,1.7-0.1,2.5,0,4.2c0.1,2.4,0.2,4.3,0.4,6.7c0.4,6.2,0.9,12.3,1.4,18.5c0.5,6.2,1.1,12.3,1.7,18.5
		c0.1,1.1,0.2,2.1,0.3,3.2c0,0,0,0,0,0c0.2,2.2,0.4,4.4,0.6,6.6c0.2,1.6,0.2,3.3,0.5,4.9c0.2,1.2,0.6,2.6,1.6,3.4
		c0.4,0.3,0.8,0.4,1.2,0.4c3.3,0,8.1-3.3,7.8-7.5c-0.2-2.4-0.3-4.7-0.4-7.1c0,0,0,0,0,0c-0.5-9.7-0.9-19.4-1.3-29.1
		c-0.1-3.2-0.3-6.4-0.4-9.7c-0.1-2.6,1.4-4.1,2.9-6.2c1.7-2.4,3.7-4.4,6.2-6c1.1-0.7,2.4-1,3.6-0.2c2,1.4,2.4,4.4,2.6,6.6
		c0.3,2.8,0.1,5.6,0.2,8.4c0.2,4.7,0.3,9.3,0.6,14c0.2,2.8,0.4,5.6,0.6,8.4c0.6,6.7,0.5,15,4.9,20.5c3.2,4,10.4,2.4,13.3-2.4
		c2.5-4.3,4.2-11.3,4.2-16.3C229.1,96,226,90.5,225.2,85.5z"/>
	<path class="st0" d="M226.1,67.5"/>
</g>
</svg>
