<?xml version="1.0" encoding="utf-8"?>
<!-- Generator: Adobe Illustrator 19.1.0, SVG Export Plug-In . SVG Version: 6.00 Build 0)  -->
<!DOCTYPE svg PUBLIC "-//W3C//DTD SVG 1.1//EN" "http://www.w3.org/Graphics/SVG/1.1/DTD/svg11.dtd">
<svg version="1.1" id="Layer_1" xmlns="http://www.w3.org/2000/svg" xmlns:xlink="http://www.w3.org/1999/xlink" x="0px" y="0px"
	 viewBox="0 0 50 50" style="enable-background:new 0 0 50 50;" xml:space="preserve">
<style type="text/css">
	.st0{fill:#E55E5D;}
	.st1{fill:none;}
	.st2{fill:#5D5E5E;}
	.st3{fill:#FFFFFF;}
</style>
<rect x="0.1" y="0.1" class="st0" width="49.8" height="49.8"/>
<rect x="9.1" y="2" class="st1" width="40.9" height="47"/>
<path class="st2" d="M82.7,84.7h-94.6c-1.6,0-3-1.4-3-3V53.5c0-1.6,1.4-3,3-3h94.6c1.7,0,3,1.4,3,3v28.2
	C85.7,83.4,84.3,84.7,82.7,84.7z"/>
<path class="st2" d="M64.2,45.7H52.9c-1.7,0-3-1.3-3-3V-4.9c0-1.7,1.3-3,3-3h11.3c1.7,0,3,1.3,3,3v47.6
	C67.2,44.4,65.8,45.7,64.2,45.7z"/>
<rect x="10.5" y="10.8" class="st3" width="29" height="6.3"/>
<rect x="10.5" y="21.7" class="st3" width="29" height="6.3"/>
<rect x="10.5" y="32.6" class="st3" width="29" height="6.3"/>
</svg>
