<?xml version="1.0" encoding="utf-8"?>
<!-- Generator: Adobe Illustrator 19.1.0, SVG Export Plug-In . SVG Version: 6.00 Build 0)  -->
<!DOCTYPE svg PUBLIC "-//W3C//DTD SVG 1.1//EN" "http://www.w3.org/Graphics/SVG/1.1/DTD/svg11.dtd">
<svg version="1.1" id="Layer_1" xmlns="http://www.w3.org/2000/svg" xmlns:xlink="http://www.w3.org/1999/xlink" x="0px" y="0px"
	 viewBox="0 0 350 346" style="enable-background:new 0 0 350 346;" xml:space="preserve">
<style type="text/css">
	.st0{fill:#F4B35D;}
	.st1{clip-path:url(#SVGID_2_);}
	.st2{clip-path:url(#SVGID_4_);fill:#F6E8D9;}
	.st3{clip-path:url(#SVGID_4_);fill:#F06C89;}
	.st4{clip-path:url(#SVGID_4_);}
	.st5{fill:#FDEEF5;}
	.st6{font-family:'FlagshipSlab';}
	.st7{font-size:32.319px;}
	.st8{clip-path:url(#SVGID_4_);fill:#FDEEF5;}
</style>
<rect x="-4" y="0.2" class="st0" width="354" height="350.5"/>
<g>
	<g>
		<defs>
			<rect id="SVGID_1_" x="29" y="22.9" width="299.2" height="299.2"/>
		</defs>
		<clipPath id="SVGID_2_">
			<use xlink:href="#SVGID_1_"  style="overflow:visible;"/>
		</clipPath>
		<g class="st1">
			<defs>
				<rect id="SVGID_3_" x="29" y="22.9" width="299.2" height="299.2"/>
			</defs>
			<clipPath id="SVGID_4_">
				<use xlink:href="#SVGID_3_"  style="overflow:visible;"/>
			</clipPath>
			<path class="st2" d="M293.8,170.9c0.5,65.5-52.2,119-117.7,119.4c-65.5,0.5-119-52.2-119.4-117.7c-0.5-65.5,52.2-119,117.7-119.4
				C239.8,52.7,293.3,105.4,293.8,170.9"/>
			<path class="st3" d="M277.5,147.3c-2-9.4-5.6-18.6-10.9-26.5c-5.5-9.8-12.5-18.8-20.4-26.7c-5.3-5.3-11.1-10.1-17.5-13.8
				c-6.9-4-14.4-6.7-21.9-9.3c-7.7-2.7-15.5-5.5-23.7-6.2c-9.6-0.8-18.9,1.3-28.1,4.4c-1.9,0.2-3.8,0.5-5.7,0.9
				c-11.8,2.5-22.3,8.5-32,15.8c-3.3,1.9-6.5,3.9-9.6,6.2c-7.3,5.5-14,12.3-19.2,20c-3,3.2-5.7,6.6-7.7,10.4
				c-4.4,8.2-5.5,17.8-6.5,27c0,0.2-0.1,0.5-0.1,0.8c-0.1,0.2-0.1,0.5-0.2,0.7c-1.9,6.5-1.9,12.6-3.5,19.2
				c-1.8,7.8-1.2,15.6,0.8,23.3c0.1,1,0.3,2,0.5,3c1.7,7.8,12.9,28.8,12.9,28.8c1.2,1.8,2.3,3.5,3.5,5.3c3.7,6.5,7.8,12.8,12.9,18.2
				c3.7,3.9,7.9,7.2,12.4,10.1c14.9,11.1,33.1,17.2,52,18.9c5.4,1.3,10.8,2.2,16.2,1.9c4.5-0.3,8.9-1.4,13.2-2.9
				c3.4-0.5,6.7-1.2,10.1-2c7.3-1.8,14.4-4.1,21-7.7c7-3.8,13.2-8.8,19.4-13.8c6.4-5.1,12.8-10.3,17.7-16.9
				c7.1-9.6,10.2-21.2,12.3-33c1.2-3.2,2.2-6.4,3-9.7C282.2,178.4,281.6,162.5,277.5,147.3"/>
			<g class="st4">
				<text transform="matrix(1.0106 -0.1319 4.449073e-02 0.999 136.2821 141.4387)" class="st5 st6 st7">t</text>
			</g>
			<g class="st4">
				<text transform="matrix(1.0106 -0.1319 4.449073e-02 0.999 147.0608 140.0319)" class="st5 st6 st7">h</text>
			</g>
			<g class="st4">
				<text transform="matrix(1.0106 -0.1319 4.449073e-02 0.999 165.7097 137.5979)" class="st5 st6 st7">e</text>
			</g>
			<path class="st8" d="M167.6,149.6c-0.1-0.6,2.2-1.6,2.1-2.1c-2.9,1.1-14.2,6.4-15.4,8.6c0-0.1-1.9-5.1-4.8-5.3
				c-2-0.2-4.8,1.7-5.3,4.4c-0.7,4.4,3.3,7.4,5.9,6.8c1-0.2,1.9-0.9,2.7-1.8c0,0.3,0.1,0.6,0.1,0.9c0.5,4,0.3,7.7-0.3,11.5
				c-0.7,4.2-2.2,8.2-4.4,11c-2.3,2.8-5.3,4.3-8.4,3.5c-1.6-0.4-3.3-1.4-4.4-3.2c-2.3-3.6-1.9-9.8-1.6-13.4
				c1.1-11.4,7.8-16.7,8.5-18.3c1-2.3-7.4-1.1-11.3,3.4c-3.9,4.6-6.6,12.9-6.5,20.4c0,4.6,1.5,9.4,4.3,12.8
				c3.7,4.3,9.1,6.2,14.4,4.1c11.4-4.5,13.3-17.8,12.7-28.5c-0.1-2.3-0.2-3.8-0.8-6C156.3,156.3,165.9,151.5,167.6,149.6
				 M149.7,159.9c-1.6,0.1-3.5-2.2-3.1-4.5c0.4-2.3,2.7-2.7,4.1-1.2c0.9,1,1.4,2.2,1.8,3.7C151.8,159.1,151.2,159.9,149.7,159.9
				 M154.2,158L154.2,158z"/>
			<path class="st8" d="M200,136.9c-0.1-0.6-5.9,5.4-5.9,4.8c-0.6,1.9-4,7.6-6.1,9.7c0-0.1-1.9-5.1-4.8-5.3c-2-0.2-4.8,1.7-5.3,4.4
				c-0.7,4.4,3.3,7.4,5.9,6.8c1-0.2,1.9-0.9,2.7-1.8c0,0.3,0.1,0.6,0.1,0.9c0.5,4,0.3,7.7-0.3,11.5c-0.7,4.2-2.2,8.2-4.4,11
				c-2.3,2.8-5.3,4.3-8.4,3.5c-1.6-0.4-3.3-1.4-4.4-3.2c-2.3-3.6-1.9-9.8-1.6-13.4c1.1-11.4,7.8-16.7,8.5-18.3
				c1-2.3-7.4-1.1-11.3,3.4c-3.9,4.6-6.6,12.9-6.5,20.4c0,4.6,1.5,9.4,4.3,12.8c3.7,4.3,9.1,6.2,14.4,4.1
				c11.4-4.5,13.3-17.8,12.7-28.5c-0.1-2.3-0.2-3.8-0.8-6C190.4,152.1,199.5,138.8,200,136.9 M183.4,155.3c-1.6,0.1-3.5-2.2-3.1-4.5
				c0.4-2.3,2.7-2.7,4.1-1.2c0.9,1,1.4,2.2,1.8,3.7C185.5,154.5,184.9,155.3,183.4,155.3 M187.9,153.3L187.9,153.3z"/>
			<path class="st8" d="M121,163.6c-1.1-2-2.2-4.1-3.8-5.7c-1.6-1.7-3.8-2.9-6.1-2.9c-6.9,0-9.3,8.3-10,13.9c-0.8,7,0,15.3,5.6,20.3
				c2.9,2.6,7.5,3.7,10.9,1.8c3.2-1.7,4.8-5.4,5.5-9c0.7-3.6,0.8-7.2,2-10.7c0.8,4.3,1.5,8.6,1,12.9c-0.5,4.3-2.3,8.6-5.6,11.4
				c-4.7,3.9-13.2,4.7-18.6,1.7c-5.3-3-8.9-8.6-10.2-14.5c-1.7-7.3-0.1-15.2,3.8-21.5c4-6.4,13.2-12.8,21-8.8
				C120.4,154.6,122.7,159.6,121,163.6C121,163.7,121,163.6,121,163.6"/>
			<path class="st8" d="M224.1,169.3c-0.4-0.8-1.9-0.9-2.3-1.7c0,1.8,0.4,3.5,0.3,5.3c-0.1,1.8-0.8,3.7-2.4,4.5
				c-0.6,0.3-1.3,0.4-2,0.1c-0.6-0.3-1-0.9-1.3-1.5c-1.3-2.7-1.9-5.7-3.4-8.3c-1.6-2.8-4.3-4.8-7.4-5.6c4.2-3.5,8.6-7.2,10.4-12.4
				c0.6-1.8,0.9-3.7,0.5-5.6c-0.4-1.8-1.6-3.6-3.3-4.3c-1.7-0.8-3.8-0.5-5.6,0.2c-3.4,1.2-6.2,3.7-8,6.8c0.1-2.4-0.4-3.4-0.1-5.7
				c2.7-3.6,6.4-10.5,8-14.2c1.6-3.7,2.4-7.8,1.4-11.7c-0.3-1.1-0.7-2.3-1.6-3.1c-1.2-1.2-3-1.6-4.6-1.2c-1.6,0.4-3,1.3-4,2.6
				c-4,5.1-4.7,11.8-5,15.5c-1.6,17.4-1.2,35.5,0.4,53.5c0.1,1.1,0.4,2.9,0.8,3.2c2.1,1.7,4.8-1.6,5.4-3.7c0.4-1.2,0.5-2.5,0.4-3.8
				c-0.3-5.6-0.4-9.1-0.5-14.7c-0.1-5.6,1.1-11.5,4.8-15.7c0.6-0.7,1.7-1.4,2.5-0.9c0.6,0.4,0.6,1.3,0.5,2.1
				c-0.8,4.6-4.1,8.4-6.4,12.4c-0.2,0.3-0.4,0.7-0.4,1.1c0,0.8,0.5,1.4,1.1,2c1.8,1.9,3.2,4.2,4.2,6.6c1,2.4,1.6,5,3.1,7
				c2,2.7,5.5,4.1,8.7,3.4c3.2-0.7,5.8-3.8,5.9-7.1c0-1.3-0.3-2.6-0.1-3.9c0.1-0.3,0.2-0.7,0.1-1
				C224.2,169.4,224.1,169.4,224.1,169.3 M201.4,122.2c0.7-2.6,1.7-4.4,3-5.7c0.2-0.2,0.8-0.4,1.1-0.4c1.1,0.2,1.1,3.9,0.9,5.2
				c-0.9,5.8-5.3,13.2-7,15.3C199.5,135.5,200.5,125.6,201.4,122.2"/>
			<path class="st8" d="M243.4,152.3c-0.1,0.7-0.1,1.5-0.2,2.2c0,1.1,0.2,6.2,0.3,7.3c0.4,3.2-1.8-2,2.2,6.5
				c1.7,3.8,6.3,5.1,9.7,2.5c3.5-2.8,4.2-6.1,4.3-11.5c0.1-6.2,5.9,17.1-9.9,17.6c-7.5,0.2-15.3-7.4-14.8-22.2
				c0.2-5.5,1.7-11.3,5.5-15.6c2.6-2.9,7-5.9,11.1-4.6c4.4,1.4,5.2,7.5,3.8,11.3c-1.5,3.9-10.4,22-16.3,25.9
				c-0.9,0.6-2.1-3.8-1.7-3.9c1-0.1,2.5-2.1,3.2-2.7c1.7-1.5,13-18.9,12.5-24.3c-0.1-1.6-0.6-3.3-2.5-2.4
				C245.7,141.2,243.9,147.2,243.4,152.3"/>
			<path class="st8" d="M233.1,173.3c0.1-0.1,0.2-0.2,0.4-0.3c2.4-1.9,4-4.6,5-7.4c1.1-2.8,1.8-5.8,2.8-8.6c0.1-0.4,0.4-0.8,0.8-0.6
				c0.2,0.1,0.2,0.3,0.3,0.4c1,2.8,0.8,6,0,8.8c-0.8,2.9-2.3,5.5-4,8c-1.9,2.8-4.6,5.6-8,5.6c-2.6,0.1-5-1.6-6.7-3.7
				c-2.5-3.1-2.1-7-2.6-10.9c-0.9-7.8-0.7-15.5,0.5-23.1c0.3-1.6,0.6-3.5,2.2-3.3c1.2,0.1,3.3,2.7,3.7,3.8c3.8,9.6-0.1,19.7,2,29.9
				c0.1,0.7,0.4,1.5,1,1.9C231.3,174.2,232.3,173.8,233.1,173.3"/>
			<path class="st8" d="M125.5,218.6c0.8-0.1,1.4,0.4,1.4,1.1c0,0.4-0.1,0.7-0.3,1c-1.5,1.8-3.6,3-5.8,3.3c-4.7,0.6-8.6-2.6-8.9-7.3
				c-0.2-4.6,3.3-8.9,8-9.6c0.9-0.1,2.2,0,3.7,0.4c0.3-0.5,0.8-0.9,1.3-0.9c0.7-0.1,1.4,0.4,1.4,1.2l0.2,3.6c0,0.8-0.6,1.5-1.3,1.6
				c-0.8,0.1-1.4-0.4-1.5-1.2c0-0.7-0.4-1.2-0.9-1.5c-0.8-0.5-2-0.6-2.8-0.5c-3.2,0.4-5.5,3.4-5.3,6.5c0.2,3.1,2.7,5.4,5.9,5
				c1.5-0.2,2.9-1,3.9-2.2C124.8,218.9,125.1,218.7,125.5,218.6"/>
			<path class="st8" d="M145.7,212c0.1,2.2-0.7,4.5-2.2,6.3c-1.6,1.9-3.8,3-6.1,3.4c-2.3,0.3-4.6-0.2-6.3-1.6
				c-1.6-1.3-2.7-3.3-2.8-5.6c-0.1-2.2,0.6-4.5,2.2-6.3c1.6-1.9,3.8-3,6.1-3.3s4.6,0.2,6.4,1.6C144.4,207.7,145.5,209.7,145.7,212
				 M130.9,214c0.1,1.6,0.8,2.8,1.9,3.8s2.8,1.3,4.4,1.1c1.6-0.2,3.1-1,4.2-2.3c1-1.2,1.6-2.7,1.5-4.3c-0.1-1.5-0.7-2.9-1.9-3.8
				c-1.2-1-2.8-1.3-4.4-1.1c-1.6,0.2-3.2,1-4.2,2.3C131.4,211,130.8,212.5,130.9,214"/>
			<path class="st8" d="M176.7,213.4c0.8-0.1,1.4,0.4,1.5,1.1c0,0.8-0.6,1.5-1.3,1.6l-6.2,0.9c-0.7,0.1-1.4-0.4-1.4-1.2
				c0-0.7,0.6-1.4,1.3-1.5l1.8-0.2l-0.4-6.9c-0.1-2.4-2.1-4.1-4.4-3.8c-2.6,0.4-3.8,2.3-3.7,4.9l0.4,6.9l1.7-0.2
				c0.7-0.1,1.4,0.4,1.4,1.1c0,0.8-0.6,1.5-1.3,1.6l-6.2,0.9c-0.8,0.1-1.4-0.4-1.5-1.2c0-0.7,0.6-1.4,1.3-1.5l1.8-0.2l-0.4-6.9
				c-0.1-2.4-2.1-4.2-4.4-3.8c-2.6,0.4-3.8,2.3-3.7,4.9l0.4,6.9l1.7-0.2c0.8-0.1,1.4,0.4,1.5,1.1c0,0.8-0.6,1.5-1.3,1.6l-6.2,0.9
				c-0.7,0.1-1.4-0.4-1.4-1.2c0-0.7,0.6-1.4,1.3-1.5l1.8-0.2l-0.6-11.1l-1.9,0.3c-0.8,0.1-1.4-0.4-1.5-1.1s0.6-1.5,1.3-1.6l2.5-0.3
				c0.6-0.1,1.9,0.6,2,2.1c0.7-1.9,2.6-3,4-3.2c2.3-0.2,4.5,0.4,5.7,2c1.3-1.9,3.2-3.2,5.1-3.5c4-0.6,7,2.5,7.2,6.1l0.4,6.9
				L176.7,213.4z"/>
			<path class="st8" d="M184.7,221.1c0.7-0.1,1.4,0.4,1.4,1.1c0,0.8-0.6,1.5-1.3,1.6l-6.3,0.9c-0.7,0.1-1.4-0.4-1.4-1.2
				c0-0.7,0.6-1.4,1.3-1.5l1.8-0.2l-1-19.8l-1.9,0.3c-0.7,0.1-1.4-0.4-1.4-1.1c0-0.7,0.6-1.4,1.3-1.5l2.6-0.4c1-0.1,2.3,0.7,2.4,2.3
				c0.7-2.1,3.4-3.3,5.2-3.6c2.2-0.3,4.3,0.3,5.9,1.6c1.7,1.4,2.6,3.5,2.7,5.7c0.1,2.2-0.6,4.6-2.1,6.3c-1.4,1.7-3.4,2.9-5.6,3.2
				c-1.8,0.2-4.1-0.1-5.6-2.2l0.5,8.8L184.7,221.1z M191.6,209.9c1-1.2,1.5-2.8,1.4-4.3c-0.1-1.5-0.7-3-1.9-3.9
				c-1.1-0.8-2.4-1.2-3.9-1c-1.5,0.2-2.8,1-3.8,2.1c-1,1.3-1.5,2.9-1.4,4.4c0.1,1.5,0.7,3,1.8,3.9c1.1,0.8,2.4,1.2,3.9,1
				C189.3,211.8,190.6,211,191.6,209.9"/>
			<path class="st8" d="M217.2,209.1c0,0.8-0.6,1.5-1.3,1.6l-2.6,0.4c-1.2,0.2-2.2-1.1-2.3-2.9c-0.9,2.5-3.6,4-5.6,4.3
				c-2.1,0.3-4.2-0.4-5.7-1.6c-1.7-1.3-2.6-3.5-2.7-5.8c-0.1-2.3,0.6-4.7,2.1-6.5c1.3-1.6,3.3-2.7,5.5-3c1.9-0.3,4.8,0.5,5.9,2.6
				c-0.1-1.7,0.8-3.3,2-3.5l2.6-0.4c0.8-0.1,1.4,0.4,1.5,1.2s-0.6,1.4-1.3,1.5l-1.9,0.3l0.6,11l1.9-0.3
				C216.5,207.9,217.2,208.4,217.2,209.1 M201.5,200.2c-1,1.2-1.4,2.9-1.4,4.4c0.1,1.6,0.7,3.1,1.8,4c1,0.8,2,1.2,3.4,1.1
				c1.4-0.2,2.7-0.9,3.6-2c1-1.2,1.4-2.9,1.4-4.4c-0.1-1.6-0.7-3.1-1.8-4c-1-0.8-2.3-1.2-3.8-1C203.4,198.4,202.4,199,201.5,200.2"
				/>
			<path class="st8" d="M227.9,207.7c0,0.7-0.6,1.4-1.2,1.5l-6.3,0.9c-0.8,0.1-1.4-0.4-1.5-1.1c0-0.8,0.6-1.4,1.3-1.5l1.7-0.2
				l-0.6-11l-1.9,0.3c-0.7,0.1-1.4-0.4-1.4-1.1c0-0.7,0.6-1.4,1.3-1.5l2.5-0.3c0.7-0.1,1.8,0.5,1.9,1.7c0.7-1.8,2.8-2.7,4.1-2.9
				c1.8-0.2,3.7,0.3,5,1.4c1.2,1.1,2.1,2.8,2.2,4.8l0.4,6.9l1.8-0.2c0.8-0.1,1.4,0.4,1.5,1.1c0,0.7-0.6,1.4-1.3,1.5l-6.2,0.9
				c-0.8,0.1-1.4-0.4-1.5-1.1c0-0.8,0.6-1.4,1.3-1.5l1.8-0.2l-0.4-6.9c-0.1-2.4-2.1-4.2-4.4-3.9c-2.6,0.4-3.8,2.4-3.7,5l0.4,6.9
				l1.8-0.3C227.2,206.4,227.9,206.9,227.9,207.7"/>
			<path class="st8" d="M247.7,202.3l3.4-10.3c-1.1,0.1-1.9-0.3-2-1.1c0-0.7,0.6-1.4,1.2-1.5l4.3-0.6c0.8-0.1,1.4,0.4,1.4,1.1
				c0,0.8-0.5,1.4-1.3,1.5l-0.8,0.1l-4,12.2c-1.1,3.7-3.3,10.3-9.2,11.1c-0.7,0.1-1.4-0.4-1.4-1.1c0-0.8,0.6-1.5,1.3-1.6
				c2.8-0.4,4.5-3.1,5.7-5.8l-7.3-12.7l-0.6,0.1c-0.7,0.1-1.4-0.4-1.4-1.1c0-0.7,0.6-1.4,1.3-1.5l4.3-0.6c0.8-0.1,1.4,0.4,1.5,1.1
				c0,0.6-0.6,1.3-1.5,1.6L247.7,202.3z"/>
			<path class="st8" d="M228.1,129.9c0,1.8-1.5,3.3-3.3,3.3c-1.8,0-3.3-1.5-3.3-3.3s1.5-3.3,3.3-3.3
				C226.6,126.6,228.1,128.1,228.1,129.9"/>
		</g>
	</g>
</g>
</svg>
